<?xml version="1.0" standalone="no"?>
<!DOCTYPE svg PUBLIC "-//W3C//DTD SVG 1.1//EN" "http://www.w3.org/Graphics/SVG/1.1/DTD/svg11.dtd" >
<svg>
<metadata>
Created by FontForge 20090914 at Mon Mar  6 01:07:12 2017
 By www-data
Copyright 1999, 2001 Double Alex Font Studio.
</metadata>
<defs>
<font id="Plumb-Light" horiz-adv-x="514" >
  <font-face 
    font-family="Plumb Light"
    font-weight="300"
    font-stretch="normal"
    units-per-em="1000"
    panose-1="0 0 0 0 0 0 0 0 0 0"
    ascent="800"
    descent="-200"
    x-height="482"
    cap-height="712"
    bbox="-18 -236.001 1099 927"
    underline-thickness="50"
    underline-position="-75"
    unicode-range="U+0020-U+2265"
  />
<missing-glyph horiz-adv-x="1000" 
 />
    <glyph glyph-name=".notdef" horiz-adv-x="1000" 
 />
    <glyph glyph-name="space" unicode=" " horiz-adv-x="255" 
 />
    <glyph glyph-name="exclam" unicode="!" horiz-adv-x="304" 
d="M195 712l-6 -520h-44l-6 520h56zM207 38c0 -11.333 -3.83301 -20.999 -11.5 -28.999s-17.167 -12 -28.5 -12s-20.833 3.83301 -28.5 11.5s-11.5 17.167 -11.5 28.5s3.83301 20.833 11.5 28.5s17.167 11.5 28.5 11.5c10.667 0 20 -3.83301 28 -11.5s12 -16.834 12 -27.501
z" />
    <glyph glyph-name="quotedbl" unicode="&#x22;" horiz-adv-x="408" 
d="M313 556h-63v156h63v-156zM158 556h-63v156h63v-156z" />
    <glyph glyph-name="numbersign" unicode="#" horiz-adv-x="639" 
d="M588 437h-100l-25 -153h96v-44h-103l-38 -240h-51l39 240h-176l-37 -240h-51l38 240h-96v44h103l25 153h-99v45h105l36 230h52l-37 -230h175l36 230h50l-36 -230h94v-45zM437 437h-175l-25 -153h175z" />
    <glyph glyph-name="dollar" unicode="$" horiz-adv-x="587" 
d="M528 190c0 -50.667 -15.999 -92.9971 -47.999 -126.997c-17.333 -18 -38 -32.667 -62 -44s-60 -19.333 -108 -24v-109h-45v108c-46.667 3.33301 -85.667 11.666 -117 24.999c-30.667 13.333 -63 36.333 -97 69l38 38c32.667 -30.667 61 -51.667 85 -63
c23.333 -10 53.666 -16.667 90.999 -20v295l-16 2c-54 6.66699 -98 25.667 -132 57s-51 73.333 -51 126s16 96 48 130c34 36 84.333 57.333 151 64v89h45v-89c38.667 -3.33301 70 -10 94 -20c26 -10.667 55.333 -29.334 88 -56.001l-35 -35c-28 23.333 -52 39.333 -72 48
c-20 8 -45 13.667 -75 17v-290l29 -5c60 -10.667 102.333 -26.334 127 -47.001c41.333 -34 62 -80.333 62 -139zM265.001 388.003l-0.000976562 282.998c-29.333 -3.33301 -52.666 -9.33301 -69.999 -18c-50.667 -24 -76 -66.667 -76 -128
c0 -39.333 11.833 -70.166 35.5 -92.499s60.5 -37.166 110.5 -44.499zM474 190.001c0 42.667 -12.999 75.666 -38.999 98.999c-20.667 19.333 -56.334 32 -107.001 38c-2.66699 0.666992 -5.66699 1.33398 -9 2.00098s-6.33301 1 -9 1v-287c60 6 103 23 129 51
c23.333 25.333 35 57.333 35 96z" />
    <glyph glyph-name="percent" unicode="%" horiz-adv-x="828" 
d="M759 127c0 -39.333 -12.167 -71.5 -36.5 -96.5s-55.833 -37.5 -94.5 -37.5s-70.334 12.5 -95.001 37.5s-37 57.167 -37 96.5v107c0 39.333 12.333 71.5 37 96.5s56.334 37.5 95.001 37.5s70.167 -12.5 94.5 -37.5s36.5 -57.167 36.5 -96.5v-107zM603 712l-332 -712h-45
l332 712h45zM332 478c0 -39.333 -12.167 -71.333 -36.5 -96s-55.833 -37 -94.5 -37s-70.334 12.333 -95.001 37s-37 56.667 -37 96v107c0 39.333 12.333 71.5 37 96.5s56.334 37.5 95.001 37.5s70.167 -12.5 94.5 -37.5s36.5 -57.167 36.5 -96.5v-107zM715 129v103
c0 65.333 -29.333 98 -88 98c-58 0 -87 -32.667 -87 -98v-103c0 -65.333 29.333 -98 88 -98c58 0 87 32.667 87 98zM288 480v103c0 65.333 -29.333 98 -88 98c-58 0 -87 -32.667 -87 -98v-103c0 -64.667 29.333 -97 88 -97c58 0 87 32.333 87 97z" />
    <glyph glyph-name="ampersand" unicode="&#x26;" horiz-adv-x="746" 
d="M662 0l-69 0.00195312l-69 84c-21.333 -20 -42 -36 -62 -48c-48 -28 -100.333 -42 -157 -42c-65.333 0 -118.5 18.667 -159.5 56s-61.5 86.333 -61.5 147c0 46 13 85.667 39 119c14.667 18 29.5 33.167 44.5 45.5s41.5 31.166 79.5 56.499
c-26 31.333 -44.333 56.333 -55 75c-16 27.333 -24 55.333 -24 84c0 39.333 14 72.666 42 99.999s62.333 41 103 41s75 -13.833 103 -41.5s42 -61.167 42 -100.5c0 -25.333 -6.33301 -48 -19 -68s-33.667 -40.333 -63 -61c-5.33301 -4 -14 -10 -26 -18l-27 -18l204 -247
c14.667 23.333 24.667 44.333 30 63c7.33301 22.667 11.333 60.667 12 114h53c-0.666992 -44.667 -4 -80 -10 -106c-8.66699 -36.667 -26 -73.667 -52 -111zM405 576.002c0 26.667 -8.83398 48.999 -26.501 66.999s-39.5 27 -65.5 27s-47.667 -8.66699 -65 -26
s-26 -39.333 -26 -66c0 -18.667 5 -37 15 -55c10 -17.333 28.333 -42.666 55 -75.999l41 28c26.667 18 45.334 34.5 56.001 49.5s16 32.167 16 51.5zM493.999 121.001l-216.001 261.001c-47.333 -32 -81 -58.667 -101 -80c-26 -28 -39 -62.667 -39 -104
c0 -46.667 15.5 -84.334 46.5 -113.001s71.833 -43 122.5 -43c30.667 0 59.334 5 86.001 15c28 10.667 61.667 32 101 64z" />
    <glyph glyph-name="quotesingle" unicode="'" horiz-adv-x="253" 
d="M158 556h-63v156h63v-156z" />
    <glyph glyph-name="parenleft" unicode="(" horiz-adv-x="284" 
d="M217 -59l-34.999 -35.001c-26.667 26.667 -43.334 44.667 -50.001 54c-23.333 32 -35 71.667 -35 119v554c0 37.333 6.33301 68.333 19 93c10 19.333 32 46 66 80l35 -35c-29.333 -29.333 -47.333 -51 -54 -65c-10 -21.333 -15 -47.666 -15 -78.999v-542
c0 -32.667 5 -59 15 -79c6.66699 -14 24.667 -35.667 54 -65z" />
    <glyph glyph-name="parenright" unicode=")" horiz-adv-x="284" 
d="M187 79c0 -36.667 -6.33398 -67.667 -19.001 -93c-9.33301 -18.667 -31.333 -45.334 -66 -80.001l-37 37c30 30 48 51.667 54 65c9.33301 20.667 14 46.334 14 77.001v542c0 31.333 -4.66699 57 -14 77c-6 13.333 -24 35 -54 65l37 37
c24.667 -24.667 41.334 -42.667 50.001 -54c23.333 -31.333 35 -71 35 -119v-554z" />
    <glyph glyph-name="asterisk" unicode="*" horiz-adv-x="467" 
d="M395 476l-22 -38l-120 73l3 -141h-45l3 141l-120 -73l-22 38l123 68l-123 68l22 38l120 -73l-3 141h45l-3 -141l120 73l22 -38l-123 -68z" />
    <glyph glyph-name="plus" unicode="+" 
d="M461 240h-180v-181h-47v181h-181v47h181v180h47v-180h180v-47z" />
    <glyph glyph-name="comma" unicode="," horiz-adv-x="258" 
d="M175 89l-80 -203h-49l55 203h74z" />
    <glyph glyph-name="hyphen" unicode="-" horiz-adv-x="426" 
d="M344 240h-262v47h262v-47z" />
    <glyph glyph-name="period" unicode="." horiz-adv-x="258" 
d="M175 44c0 -12.667 -4.5 -23.667 -13.5 -33s-19.833 -14 -32.5 -14s-23.5 4.5 -32.5 13.5s-13.5 19.833 -13.5 32.5s4.5 23.5 13.5 32.5s19.833 13.5 32.5 13.5s23.5 -4.5 32.5 -13.5s13.5 -19.5 13.5 -31.5z" />
    <glyph glyph-name="slash" unicode="/" horiz-adv-x="338" 
d="M338 786l-285 -860h-53l285 860h53z" />
    <glyph glyph-name="zero" unicode="0" 
d="M444 184c0 -55.333 -17.5 -100.833 -52.5 -136.5s-79.833 -53.5 -134.5 -53.5s-99.5 17.833 -134.5 53.5s-52.5 81.167 -52.5 136.5v344c0 55.333 17.5 100.833 52.5 136.5s79.833 53.5 134.5 53.5s99.5 -17.833 134.5 -53.5s52.5 -81.167 52.5 -136.5v-344zM393 189v334
c0 45.333 -12.333 81.666 -37 108.999s-57.667 41 -99 41s-74.333 -13.667 -99 -41s-37 -63.666 -37 -108.999v-334c0 -45.333 12.333 -81.666 37 -108.999s57.667 -41 99 -41s74.333 13.667 99 41s37 63.666 37 108.999z" />
    <glyph glyph-name="one" unicode="1" 
d="M313 0h-51v654l-129 -114v61l129 111h51v-712z" />
    <glyph glyph-name="two" unicode="2" 
d="M449 0h-377v45l286 375c26.667 35.333 40 72.333 40 111c0 43.333 -12.333 77.833 -37 103.5s-58 38.5 -100 38.5s-75.333 -12.333 -100 -37c-10.667 -10.667 -19 -23.334 -25 -38.001c-7.33301 -17.333 -11.333 -39.666 -12 -66.999h-51c2 33.333 7 60 15 80
c14.667 34 37 60.333 67 79s65.333 28 106 28c56.667 0 102.167 -17 136.5 -51s51.5 -79.667 51.5 -137c0 -48 -16.333 -93.333 -49 -136l-267 -349h316v-45z" />
    <glyph glyph-name="three" unicode="3" 
d="M447 192c0 -60.667 -18.332 -108.998 -54.999 -144.998s-86.334 -54 -149.001 -54c-89.333 0 -150 33.667 -182 101c-9.33301 19.333 -15.666 45.666 -18.999 78.999h51c2 -22.667 7 -42.334 15 -59.001c25.333 -50.667 70.666 -76 135.999 -76
c46 0 82.833 14.167 110.5 42.5s41.5 66.166 41.5 113.499c0 98.667 -51.667 148 -155 148h-12v45h12c45.333 0 80.166 12 104.499 36s36.5 59 36.5 105c0 44.667 -12.5 80.167 -37.5 106.5s-58.833 39.5 -101.5 39.5c-80 0 -127 -43.333 -141 -130h-51
c4.66699 32.667 11.667 58 21 76c16 31.333 39 55.666 69 72.999s64.333 26 103 26c56.667 0 102.334 -17.5 137.001 -52.5s52 -80.833 52 -137.5c0 -51.333 -15 -92.666 -45 -123.999c-13.333 -13.333 -32 -25.666 -56 -36.999c28.667 -11.333 49.667 -23.333 63 -36
c34.667 -32 52 -78.667 52 -140z" />
    <glyph glyph-name="four" unicode="4" 
d="M471 117h-95v-117h-51v117h-282v45l262 550h54l-262 -550h228v226h51v-226h95v-45z" />
    <glyph glyph-name="five" unicode="5" 
d="M451 229c0 -47.333 -4.16797 -85.001 -12.501 -113.001s-22.5 -52 -42.5 -72c-34 -34 -80 -51 -138 -51c-110.667 0 -172 54.667 -184 164h51c4 -25.333 9.66699 -45 17 -59c22 -40 60 -60 114 -60c42 0 75.667 12 101 36c28.667 28.667 43 81.334 43 158.001
c0 66.667 -10.667 115.167 -32 145.5s-55.666 45.5 -102.999 45.5c-66 0 -108.333 -25 -127 -75h-45v364h342v-45h-297v-252c16.667 17.333 33 29.333 49 36c26 11.333 54.333 17 85 17c61.333 0 106.5 -19.5 135.5 -58.5s43.5 -99.167 43.5 -180.5z" />
    <glyph glyph-name="six" unicode="6" 
d="M448 201c0 -62 -17.332 -112 -51.999 -150s-80.334 -57 -137.001 -57s-102.167 18.167 -136.5 54.5s-51.5 84.5 -51.5 144.5c0 46 13.333 96 40 150l183 369h51l-164 -329c26.667 11.333 54 17 82 17c55.333 0 100 -18.333 134 -55s51 -84.667 51 -144zM397.001 194
c0 49.333 -12.501 88.5 -37.501 117.5s-58.5 43.5 -100.5 43.5s-75.333 -14.333 -100 -43s-37 -67 -37 -115s12.5 -86.333 37.5 -115s58.167 -43 99.5 -43c40.667 0 73.834 14.333 99.501 43s38.5 66 38.5 112z" />
    <glyph glyph-name="seven" unicode="7" 
d="M459 667l-252 -667h-52l252 667h-270v-112h-51v157h373v-45z" />
    <glyph glyph-name="eight" unicode="8" 
d="M460 192c0 -56.667 -19.333 -103.834 -58 -141.501s-87 -56.5 -145 -56.5s-106.333 18.833 -145 56.5s-58 84.834 -58 141.501c0 48 15.667 90.333 47 127c16.667 18 38.667 35 66 51c-26 15.333 -44.667 29.666 -56 42.999c-28 32 -42 71.333 -42 118
c0 54 17.667 98.667 53 134s80.333 53 135 53s99.667 -17.667 135 -53s53 -80 53 -134c0 -46 -14 -85.333 -42 -118c-12 -14 -30.333 -28.333 -55 -43c29.333 -18 51 -35 65 -51c31.333 -35.333 47 -77.666 47 -126.999zM394 529c0 42.667 -12.667 77.3311 -38 103.998
s-58.333 40 -99 40c-40 0 -72.833 -13.167 -98.5 -39.5s-38.5 -60.166 -38.5 -101.499s12.667 -75.166 38 -101.499s58.333 -39.5 99 -39.5c39.333 0 72 13 98 39s39 59 39 99zM409 188.997c0 44.667 -14.5 82 -43.5 112s-65.167 45 -108.5 45
c-42.667 0 -78.667 -14.833 -108 -44.5s-44 -66.167 -44 -109.5s14.5 -79.666 43.5 -108.999s65.167 -44 108.5 -44c42.667 0 78.667 14.667 108 44s44 64.666 44 105.999z" />
    <glyph glyph-name="nine" unicode="9" 
d="M443 518c0 -46 -13.333 -95.667 -40 -149l-183 -369h-51l164 329c-26.667 -11.333 -54.334 -17 -83.001 -17c-55.333 0 -99.833 18.167 -133.5 54.5s-50.5 84.5 -50.5 144.5c0 62 17.333 112 52 150s80.334 57 137.001 57s102.167 -18.167 136.5 -54.5
s51.5 -84.833 51.5 -145.5zM392 512c0 49.333 -12.3311 88.5 -36.998 117.5s-58.334 43.5 -101.001 43.5c-41.333 0 -74.5 -14.333 -99.5 -43s-37.5 -66.667 -37.5 -114c0 -48 12.5 -86.5 37.5 -115.5s58.167 -43.5 99.5 -43.5s74.666 14.167 99.999 42.5
s38 65.833 38 112.5z" />
    <glyph glyph-name="colon" unicode=":" horiz-adv-x="258" 
d="M175 404c0 -12.667 -4.5 -23.667 -13.5 -33s-19.833 -14 -32.5 -14s-23.5 4.5 -32.5 13.5s-13.5 19.833 -13.5 32.5s4.5 23.5 13.5 32.5s19.833 13.5 32.5 13.5s23.5 -4.5 32.5 -13.5s13.5 -19.5 13.5 -31.5zM175 44c0 -12.667 -4.5 -23.667 -13.5 -33
s-19.833 -14 -32.5 -14s-23.5 4.5 -32.5 13.5s-13.5 19.833 -13.5 32.5s4.5 23.5 13.5 32.5s19.833 13.5 32.5 13.5s23.5 -4.5 32.5 -13.5s13.5 -19.5 13.5 -31.5z" />
    <glyph glyph-name="semicolon" unicode=";" horiz-adv-x="258" 
d="M175 404c0 -12.667 -4.5 -23.667 -13.5 -33s-19.833 -14 -32.5 -14s-23.5 4.5 -32.5 13.5s-13.5 19.833 -13.5 32.5s4.5 23.5 13.5 32.5s19.833 13.5 32.5 13.5s23.5 -4.5 32.5 -13.5s13.5 -19.5 13.5 -31.5zM175 89l-80 -203h-49l55 203h74z" />
    <glyph glyph-name="less" unicode="&#x3c;" 
d="M473 65l-432 173v54l432 174v-54l-370 -147l370 -146v-54z" />
    <glyph glyph-name="equal" unicode="=" 
d="M461 316h-408v47h408v-47zM461 163h-408v47h408v-47z" />
    <glyph glyph-name="greater" unicode="&#x3e;" 
d="M473 238l-432 -173v54l370 146l-370 147v54l432 -174v-54z" />
    <glyph glyph-name="question" unicode="?" horiz-adv-x="488" 
d="M438 543c0 -36 -14.667 -76 -44 -120l-85 -125c-12 -17.333 -18 -37.333 -18 -60v-47h-51v45c0 30.667 9.66699 60.667 29 90l84 124c22.667 33.333 34 64 34 92c0 37.333 -12.333 68.5 -37 93.5s-55.334 37.5 -92.001 37.5c-37.333 0 -67.333 -11.667 -90 -35
s-35 -55.333 -37 -96h-51c2.66699 54 20.334 96.833 53.001 128.5s74.667 47.5 126 47.5c50.667 0 93.167 -16.833 127.5 -50.5s51.5 -75.167 51.5 -124.5zM305 38c0 -11.333 -3.83301 -20.999 -11.5 -28.999s-17.167 -12 -28.5 -12s-20.833 3.83301 -28.5 11.5
s-11.5 17.167 -11.5 28.5s3.83301 20.833 11.5 28.5s17.167 11.5 28.5 11.5c10.667 0 20 -3.83301 28 -11.5s12 -16.834 12 -27.501z" />
    <glyph glyph-name="at" unicode="@" horiz-adv-x="697" 
d="M620 0l-51 -0.00292969v59c-18 -22.667 -36.333 -38.667 -55 -48c-22.667 -12 -50 -18 -82 -18c-60.667 0 -107.667 21.667 -141 65c-28.667 38 -43 99 -43 183s13 144.333 39 181c32 44.667 79.667 67 143 67c29.333 0 56 -5.66699 80 -17c20 -10 39.667 -27 59 -51v89
c0 52 -13.333 91.833 -40 119.5s-65 41.5 -115 41.5h-132c-47.333 0 -85 -14 -113 -42c-15.333 -15.333 -26 -31.666 -32 -48.999s-9 -40.666 -9 -69.999v-353c0 -34.667 4 -60 12 -76s24.667 -33.667 50 -53l-35 -35c-30.667 22.667 -51 43.334 -61 62.001
c-11.333 20.667 -17 54.667 -17 102v350c0 62.667 17.833 112.5 53.5 149.5s83.167 55.5 142.5 55.5h150c59.333 0 107 -18.667 143 -56s54 -87 54 -149v-507zM569 239.997c0 71.333 -10.667 123.167 -32 155.5s-55.666 48.5 -102.999 48.5s-81.666 -16 -102.999 -48
s-32 -83.667 -32 -155s10.667 -123 32 -155s55.666 -48 102.999 -48s81.666 16 102.999 48s32 83.333 32 154z" />
    <glyph glyph-name="A" unicode="A" horiz-adv-x="600" 
d="M586 0h-58l-62 173h-332l-62 -173h-58l262 712h48zM449 221l-149 419l-149 -419h298z" />
    <glyph glyph-name="B" unicode="B" horiz-adv-x="671" 
d="M589 192c0 -60 -18.5 -107 -55.5 -141s-88.167 -51 -153.5 -51h-270v712h262c61.333 0 111 -17 149 -51s57 -78.333 57 -133c0 -52 -18 -95 -54 -129c-14 -12.667 -33 -23.667 -57 -33c28 -11.333 50 -24 66 -38c37.333 -34 56 -79.333 56 -136zM524 526
c0 43.333 -14 77.168 -42 101.501s-66.667 36.5 -116 36.5h-202v-276h202c50 0 88.833 12.167 116.5 36.5s41.5 58.166 41.5 101.499zM535 194.002c0 44.667 -14.5 80.167 -43.5 106.5s-68.167 39.5 -117.5 39.5h-210v-292h210c49.333 0 88.5 13.167 117.5 39.5
s43.5 61.833 43.5 106.5z" />
    <glyph glyph-name="C" unicode="C" horiz-adv-x="596" 
d="M527 83c-34 -30.667 -65.6689 -53.167 -95.002 -67.5s-64 -21.5 -104 -21.5c-69.333 0 -129.333 24.333 -180 73c-28.667 27.333 -46.834 60.333 -54.501 99s-11.5 102 -11.5 190c0 93.333 3 154 9 182c8.66699 42 27.667 77.667 57 107
c48.667 48.667 108.334 73 179.001 73c39.333 0 74.333 -7.5 105 -22.5s62.334 -37.167 95.001 -66.5l-36 -36c-28 26.667 -53.833 46.167 -77.5 58.5s-52.167 18.5 -85.5 18.5c-43.333 0 -83 -13.333 -119 -40s-57.333 -61 -64 -103c-6 -34.667 -9 -91.667 -9 -171v-30
c0 -69.333 3.66699 -119.333 11 -150s22 -57 44 -79c36.667 -36.667 82.334 -55 137.001 -55c33.333 0 61.833 6.16699 85.5 18.5s49.5 31.833 77.5 58.5z" />
    <glyph glyph-name="D" unicode="D" horiz-adv-x="678" 
d="M596 371v-14.001c0 -33.333 -0.333008 -59.666 -1 -78.999s-3 -44 -7 -74s-11 -56.5 -21 -79.5s-23.333 -42.833 -40 -59.5c-42 -43.333 -101.333 -65 -178 -65h-239v712h239c75.333 0 134.666 -21.667 177.999 -65c17.333 -17.333 31 -36.333 41 -57
s16.833 -46 20.5 -76s5.83398 -52.5 6.50098 -67.5s1 -40.167 1 -75.5zM542 313.999v52c0 59.333 -2.66699 108.333 -8 147c-5.33301 36.667 -20.333 68.667 -45 96c-35.333 36.667 -86.333 55 -153 55h-172v-616h172c67.333 0 118.333 18.333 153 55
c35.333 38 53 108.333 53 211z" />
    <glyph glyph-name="E" unicode="E" horiz-adv-x="598" 
d="M542 0h-432v712h432v-48h-378v-281h322v-48h-322v-287h378v-48z" />
    <glyph glyph-name="F" unicode="F" horiz-adv-x="576" 
d="M542 664h-378v-293h322v-48h-322v-323h-54v712h432v-48z" />
    <glyph glyph-name="G" unicode="G" horiz-adv-x="648" 
d="M571 248c0 -73.333 -19.334 -130.667 -58.001 -172c-50.667 -54.667 -113 -82 -187 -82c-70 0 -129.333 24.333 -178 73c-33.333 33.333 -52.333 68.666 -57 105.999c-6 48 -9 109 -9 183v37c0 74 4.33301 127.833 13 161.5s26.334 63.834 53.001 90.501
c48.667 48.667 108.667 73 180 73c36.667 0 69.667 -6.33301 99 -19c19.333 -8 36.5 -17.333 51.5 -28s34.833 -28 59.5 -52l-36 -36c-30 28.667 -53 48 -69 58c-30 19.333 -64.667 29 -104 29c-55.333 0 -101.333 -18.333 -138 -55c-26.667 -26.667 -42 -56 -46 -88
c-6 -43.333 -9 -100.333 -9 -171v-30c0 -69.333 3.66699 -119.333 11 -150s22 -57 44 -79c35.333 -36.667 80 -55 134 -55c62 0 111.667 23 149 69c28.667 35.333 43 82.333 43 141v64h-191v48h245v-116z" />
    <glyph glyph-name="H" unicode="H" horiz-adv-x="699" 
d="M589 0h-54v335h-371v-335h-54v712h54v-329h371v329h54v-712z" />
    <glyph glyph-name="I" unicode="I" horiz-adv-x="274" 
d="M164 0h-54v712h54v-712z" />
    <glyph glyph-name="J" unicode="J" horiz-adv-x="498" 
d="M398 210c0 -65.333 -19.3301 -117.667 -57.9971 -157s-90.334 -59 -155.001 -59c-31.333 0 -61 5.66699 -89 17c-20 8 -42 22.667 -66 44l37 37c18.667 -18.667 36.667 -31.667 54 -39s38.666 -11 63.999 -11c51.333 0 90.666 15.5 117.999 46.5s41 75.167 41 132.5v491
h54v-502z" />
    <glyph glyph-name="K" unicode="K" horiz-adv-x="645" 
d="M627 0h-64l-229 399l-170 -206v-193h-54v712h54v-445l361 445h65l-220 -272z" />
    <glyph glyph-name="L" unicode="L" horiz-adv-x="572" 
d="M542 0h-432v712h54v-664h378v-48z" />
    <glyph glyph-name="M" unicode="M" horiz-adv-x="818" 
d="M708 0h-54v587l-216 -487h-54l-220 487v-587h-54v712h54l248 -549l242 549h54v-712z" />
    <glyph glyph-name="N" unicode="N" horiz-adv-x="739" 
d="M629 0h-54l-411 619v-619h-54v712h54l411 -617v617h54v-712z" />
    <glyph glyph-name="O" unicode="O" horiz-adv-x="652" 
d="M570 356c0 -90 -3.83203 -153.497 -11.499 -190.497s-25.834 -69.833 -54.501 -98.5c-48.667 -48.667 -108 -73 -178 -73s-129.333 24.333 -178 73c-29.333 29.333 -47.666 63 -54.999 101s-11 100.667 -11 188v24c0 50 0.666992 86.667 2 110s7 49.666 17 78.999
s25.667 54.666 47 75.999c48.667 48.667 108 73 178 73s129.333 -24.333 178 -73c8 -8 15.167 -16.333 21.5 -25s11.833 -18.5 16.5 -29.5l12 -28.5c3.33301 -8 6 -18.833 8 -32.5s3.66699 -24.334 5 -32.001s2.16602 -19.5 2.49902 -35.5s0.5 -27.167 0.5 -33.5v-37v-35.5z
M516.001 346.003v27c0 76 -3.5 129.667 -10.5 161s-21.833 58.333 -44.5 81c-36.667 36.667 -81.667 55 -135 55s-98.333 -18.333 -135 -55c-23.333 -23.333 -38.333 -52.666 -45 -87.999s-10 -92.333 -10 -171v-31c0 -68.667 3.66699 -118.334 11 -149.001s22 -57 44 -79
c36.667 -36.667 81.667 -55 135 -55s98.333 18.333 135 55c18 18 31.167 40.667 39.5 68s13 51.833 14 73.5s1.5 57.5 1.5 107.5z" />
    <glyph glyph-name="P" unicode="P" horiz-adv-x="631" 
d="M586 507c0 -62 -19.5 -111.667 -58.5 -149s-91.167 -56 -156.5 -56h-207v-302h-54v712h261c65.333 0 117.5 -18.667 156.5 -56s58.5 -87 58.5 -149zM532 507c0 50 -14.5 88.667 -43.5 116s-70.167 41 -123.5 41h-201v-314h201c53.333 0 94.5 13.667 123.5 41
s43.5 66 43.5 116z" />
    <glyph glyph-name="Q" unicode="Q" horiz-adv-x="651" 
d="M603 0l-36 -36.001l-84 84c-27.333 -19.333 -51 -32.333 -71 -39c-28 -10 -56.667 -15 -86 -15c-70 0 -129.333 24.333 -178 73c-33.333 33.333 -52.333 68.666 -57 105.999c-3.33301 24 -6.33301 85 -9 183c0 4 -0.166992 10.167 -0.5 18.5s-0.5 14.5 -0.5 18.5
c0 74 4.5 127.833 13.5 161.5s26.833 63.834 53.5 90.501c48.667 48.667 108 73 178 73s129.333 -24.333 178 -73c32.667 -32.667 51.667 -68 57 -106c3.33301 -26 6.33301 -87 9 -183c0 -4 0.166992 -10 0.5 -18s0.5 -14 0.5 -18c0 -84.667 -6.66699 -145 -20 -181
c-6 -17.333 -16.667 -35.666 -32 -54.999zM516 355.999c0.666992 84 -2.49902 142.334 -9.49902 175.001s-22.167 60.667 -45.5 84c-36.667 36.667 -81.667 55 -135 55s-98.333 -18.333 -135 -55c-26.667 -26.667 -42 -56 -46 -88c-6 -42 -9 -99 -9 -171v-31
c0 -68.667 3.66699 -118.334 11 -149.001s22 -57 44 -79c36.667 -36.667 81.667 -55 135 -55c20 0 41.667 3.66699 65 11c17.333 6 36 16.333 56 31l-100 100l36 36l99 -99c9.33301 15.333 16 29.333 20 42c7.33301 28.667 11.666 69.667 12.999 123z" />
    <glyph glyph-name="R" unicode="R" horiz-adv-x="657" 
d="M593 0h-63.001l-170 328h-196v-328h-54v712h271c62 0 111.5 -17.333 148.5 -52s55.5 -81 55.5 -139c0 -51.333 -14.333 -94 -43 -128c-25.333 -30 -65.666 -51.333 -120.999 -64zM530.999 520c0 45.333 -13.833 80.668 -41.5 106.001s-66.167 38 -115.5 38h-210v-288h210
c49.333 0 87.833 12.667 115.5 38s41.5 60.666 41.5 105.999z" />
    <glyph glyph-name="S" unicode="S" horiz-adv-x="587" 
d="M528 190c0 -61.333 -21.998 -109.333 -65.998 -144s-104.667 -52 -182 -52c-47.333 0 -90 7.66699 -128 23c-32.667 14 -66.334 37.667 -101.001 71l38 38c35.333 -33.333 66.333 -55.333 93 -66c30 -12 64.667 -18 104 -18c59.333 0 105.5 13 138.5 39
s49.5 62.333 49.5 109c0 42.667 -13 75.667 -39 99c-19.333 18 -53.666 30.667 -102.999 38l-83 13c-122 19.333 -183 80.333 -183 183c0 60.667 20 108.334 60 143.001s95.333 52 166 52c40.667 0 75.667 -5.66699 105 -17c27.333 -10 59 -30 95 -60l-35 -35
c-28.667 24.667 -55 41.667 -79 51c-26 10 -56.333 15 -91 15c-52.667 0 -93.834 -13 -123.501 -39s-44.5 -62 -44.5 -108c0 -41.333 12.333 -72.333 37 -93c28.667 -23.333 64 -38 106 -44l77 -12c57.333 -8.66699 99.666 -24.334 126.999 -47.001
c41.333 -34 62 -80.333 62 -139z" />
    <glyph glyph-name="T" unicode="T" horiz-adv-x="539" 
d="M509 664h-213v-664h-54v664h-212v48h479v-48z" />
    <glyph glyph-name="U" unicode="U" horiz-adv-x="688" 
d="M588 231c0 -69.333 -22.833 -126.166 -68.5 -170.499s-104.167 -66.5 -175.5 -66.5s-129.833 22.167 -175.5 66.5s-68.5 101.166 -68.5 170.499v481h54v-474c0 -58.667 17.333 -106 52 -142s80.667 -54 138 -54s103.333 18 138 54s52 83.333 52 142v474h54v-481z" />
    <glyph glyph-name="V" unicode="V" horiz-adv-x="534" 
d="M524 712l-234 -712h-46l-234 712h57l200 -617l200 617h57z" />
    <glyph glyph-name="W" unicode="W" horiz-adv-x="842" 
d="M822 712l-178 -712h-55l-168 620l-168 -620h-55l-178 712h57l150 -619l166 619h56l166 -619l150 619h57z" />
    <glyph glyph-name="X" unicode="X" horiz-adv-x="532" 
d="M514 0h-63l-186 317l-186 -317h-61l218 365l-204 347h63l170 -299l171 299h62l-204 -347z" />
    <glyph glyph-name="Y" unicode="Y" horiz-adv-x="494" 
d="M484 712l-210 -417v-295h-54v295l-210 417h58l181 -360l177 360h58z" />
    <glyph glyph-name="Z" unicode="Z" horiz-adv-x="559" 
d="M496 0h-433v57l375 607h-360v48h418v-48l-378 -616h378v-48z" />
    <glyph glyph-name="bracketleft" unicode="[" horiz-adv-x="290" 
d="M245 -74h-148v860h148v-45h-97v-770h97v-45z" />
    <glyph glyph-name="backslash" unicode="\" horiz-adv-x="338" 
d="M338 -74h-53l-285 860h53z" />
    <glyph glyph-name="bracketright" unicode="]" horiz-adv-x="290" 
d="M193 -74h-148v42h100v776h-100v42h148v-860z" />
    <glyph glyph-name="asciicircum" unicode="^" 
d="M438 422h-51l-130 242l-130 -242h-51l158 296h46z" />
    <glyph glyph-name="underscore" unicode="_" horiz-adv-x="600" 
d="M600 -160h-600v38h600v-38z" />
    <glyph glyph-name="grave" unicode="`" horiz-adv-x="500" 
d="M297 590h-58l-106 147h67z" />
    <glyph glyph-name="a" unicode="a" horiz-adv-x="524" 
d="M431 0h-51.001v48c-22 -20 -41 -33.333 -57 -40c-22.667 -9.33301 -53.334 -14 -92.001 -14c-116.667 0 -175 46.333 -175 139c0 43.333 14.833 77.166 44.5 101.499s70.834 36.5 123.501 36.5h156v54c0 40.667 -11.167 70.5 -33.5 89.5s-57.833 28.5 -106.5 28.5
c-33.333 0 -60.666 -5.33301 -81.999 -16c-16 -8.66699 -31.667 -23.667 -47 -45l-37 32c20 24.667 40 42.334 60 53.001c28 14 64 21 108 21c126 0 189 -52.667 189 -158v-330zM379.999 168v62.001h-150c-82 0 -123 -32.333 -123 -97c0 -32.667 10.5 -56.5 31.5 -71.5
s54.167 -22.5 99.5 -22.5c50.667 0 87 10.167 109 30.5s33 53.166 33 98.499z" />
    <glyph glyph-name="b" unicode="b" horiz-adv-x="540" 
d="M471 240c0 -164 -61.001 -246 -183.001 -246c-32 0 -59.333 5.66699 -82 17c-17.333 8 -36.666 25 -57.999 51v-62h-51v712h51v-292c20.667 25.333 40 42.333 58 51c24 11.333 51 17 81 17c122.667 0 184 -82.667 184 -248zM419.999 240
c0 70.667 -10.833 122.168 -32.5 154.501s-56.167 48.5 -103.5 48.5s-81.833 -16.167 -103.5 -48.5s-32.5 -83.5 -32.5 -153.5s10.833 -121.167 32.5 -153.5s56.167 -48.5 103.5 -48.5s81.833 16.167 103.5 48.5s32.5 83.166 32.5 152.499z" />
    <glyph glyph-name="c" unicode="c" horiz-adv-x="493" 
d="M440 68c-25.333 -27.333 -49.002 -46.501 -71.002 -57.501s-50.333 -16.5 -85 -16.5c-67.333 0 -120 22 -158 66s-57 104.333 -57 181s19 137 57 181s90.667 66 158 66c34 0 62 -5.5 84 -16.5s46 -30.167 72 -57.5l-35 -32c-19.333 21.333 -38 36.833 -56 46.5
s-40 14.5 -66 14.5c-57.333 0 -100.666 -21.333 -129.999 -64c-22 -31.333 -33 -77.666 -33 -138.999s11 -107 33 -137c30 -42.667 73 -64 129 -64c26.667 0 48.834 4.83301 66.501 14.5s36.5 25.167 56.5 46.5z" />
    <glyph glyph-name="d" unicode="d" horiz-adv-x="540" 
d="M443 0h-51v62c-20 -24 -39.333 -41 -58 -51c-24 -11.333 -51.333 -17 -82 -17c-122 0 -183 82.333 -183 247s61 247 183 247c32 0 59.333 -5.66699 82 -17c18.667 -10 38 -27 58 -51v292h51v-712zM392 240c0 70.667 -10.833 122.168 -32.5 154.501
s-56.167 48.5 -103.5 48.5s-81.833 -16.167 -103.5 -48.5s-32.5 -83.5 -32.5 -153.5s10.833 -121.167 32.5 -153.5s56.167 -48.5 103.5 -48.5s81.833 16.167 103.5 48.5s32.5 83.166 32.5 152.499z" />
    <glyph glyph-name="e" unicode="e" horiz-adv-x="523" 
d="M455 230l-335 0.000976562c2 -45.333 7.66699 -79.333 17 -102c24 -58.667 71 -88 141 -88c25.333 0 48 4 68 12c17.333 7.33301 38.666 22.666 63.999 45.999l38 -30c-29.333 -28.667 -56.333 -48 -81 -58c-25.333 -10.667 -55.666 -16 -90.999 -16
c-138 0 -207 83.333 -207 250c0 76 17.167 135.667 51.5 179s81.5 65 141.5 65s107.167 -20.833 141.5 -62.5s51.5 -99.167 51.5 -172.5v-23zM404 271.001c-2 32.667 -5 55.666 -9 68.999c-9.33301 32.667 -25.833 58 -49.5 76s-51.5 27 -83.5 27
c-28 0 -53 -7.16699 -75 -21.5s-38.667 -34.166 -50 -59.499c-9.33301 -22 -15 -52.333 -17 -91h284z" />
    <glyph glyph-name="f" unicode="f" horiz-adv-x="304" 
d="M272 444l-109 0.000976562v-444h-51v444h-66v38h66v104c0 39.333 10.333 70.166 31 92.499s49 33.5 85 33.5h44v-45h-35c-49.333 0 -74 -26.667 -74 -80v-105h109v-38z" />
    <glyph glyph-name="g" unicode="g" horiz-adv-x="540" 
d="M443 -27c0 -64 -18.001 -114.834 -54.001 -152.501s-85 -56.5 -147 -56.5c-29.333 0 -54.666 4 -75.999 12c-22.667 8.66699 -49 26 -79 52l34 34c24 -21.333 45 -35.666 63 -42.999c16 -6.66699 36 -10 60 -10c46.667 0 83 14.5 109 43.5s39 70.167 39 123.5v86
c-20 -24 -39.333 -41 -58 -51c-24 -11.333 -51.333 -17 -82 -17c-122 0 -183 82.333 -183 247s61 247 183 247c32 0 59.333 -5.66699 82 -17c18.667 -10 38 -27 58 -51v62h51v-509zM391.999 239.999c0 70.667 -10.833 122.168 -32.5 154.501s-56.167 48.5 -103.5 48.5
s-81.833 -16.167 -103.5 -48.5s-32.5 -83.5 -32.5 -153.5s10.833 -121.167 32.5 -153.5s56.167 -48.5 103.5 -48.5s81.833 16.167 103.5 48.5s32.5 83.166 32.5 152.499z" />
    <glyph glyph-name="h" unicode="h" horiz-adv-x="559" 
d="M468 0l-51.001 -0.00195312v299c0 46.667 -11.5 82.334 -34.5 107.001s-55.833 37 -98.5 37s-76 -12.667 -100 -38s-36 -60.666 -36 -105.999v-299h-51v712h51v-287c20.667 21.333 40.667 36.666 60 45.999c23.333 11.333 51 17 83 17
c54.667 0 97.834 -16.167 129.501 -48.5s47.5 -76.166 47.5 -131.499v-308z" />
    <glyph glyph-name="i" unicode="i" horiz-adv-x="245" 
d="M160 682c0 -10.667 -3.66699 -19.834 -11 -27.501s-16 -11.5 -26 -11.5c-10.667 0 -19.667 3.66699 -27 11s-11 16 -11 26c0 10.667 3.66699 19.667 11 27s16 11 26 11s18.833 -3.66699 26.5 -11s11.5 -15.666 11.5 -24.999zM148 0h-51v482h51v-482z" />
    <glyph glyph-name="j" unicode="j" horiz-adv-x="245" 
d="M160 682c0 -10.667 -3.66699 -19.834 -11 -27.501s-16 -11.5 -26 -11.5c-10.667 0 -19.667 3.66699 -27 11s-11 16 -11 26c0 10.667 3.66699 19.667 11 27s16 11 26 11s18.833 -3.66699 26.5 -11s11.5 -15.666 11.5 -24.999zM148 -105
c0 -39.333 -10.167 -69.999 -30.5 -91.999s-48.833 -33 -85.5 -33h-44v45h35c26.667 0 45.667 6.16699 57 18.5s17 33.166 17 62.499v586h51v-587z" />
    <glyph glyph-name="k" unicode="k" horiz-adv-x="527" 
d="M487 0h-63l-166 265l-110 -127v-138h-51v712h51v-502l239 272h65l-159 -180z" />
    <glyph glyph-name="l" unicode="l" horiz-adv-x="245" 
d="M148 0h-51v712h51v-712z" />
    <glyph glyph-name="m" unicode="m" horiz-adv-x="878" 
d="M788 0l-50.9961 -0.00585938v299c0 46.667 -11.333 82.334 -34 107.001s-55.334 37 -98.001 37c-42 0 -75.333 -12.167 -100 -36.5s-37 -57.166 -37 -98.499v-308h-51v299c0 46.667 -11.5 82.334 -34.5 107.001s-55.833 37 -98.5 37s-76 -12.667 -100 -38
s-36 -60.666 -36 -105.999v-299h-51v482h51v-57c21.333 22 41.666 37.333 60.999 46c26 11.333 53.333 17 82 17c50 0 90 -14 120 -42c12 -11.333 23.667 -26.666 35 -45.999c15.333 22 29.666 38 42.999 48c33.333 26.667 73.666 40 120.999 40
c54.667 0 98 -16.167 130 -48.5s48 -76.166 48 -131.499v-308z" />
    <glyph glyph-name="n" unicode="n" horiz-adv-x="559" 
d="M468 0l-51.001 -0.00195312v299c0 46.667 -11.5 82.334 -34.5 107.001s-55.833 37 -98.5 37s-76 -12.667 -100 -38s-36 -60.666 -36 -105.999v-299h-51v482h51v-57c20.667 21.333 40.667 36.666 60 45.999c23.333 11.333 51 17 83 17
c54.667 0 97.834 -16.167 129.501 -48.5s47.5 -76.166 47.5 -131.499v-308z" />
    <glyph glyph-name="o" unicode="o" horiz-adv-x="526" 
d="M457 244c0 -90.667 -20 -156.333 -60 -197c-35.333 -35.333 -80 -53 -134 -53s-98.667 17.667 -134 53c-40 40 -60 104.667 -60 194s20 154 60 194c35.333 35.333 80 53 134 53c62 0 109.833 -21.167 143.5 -63.5s50.5 -102.5 50.5 -180.5zM406 239.001
c0 44 -3.16699 78 -9.5 102s-17.5 44.333 -33.5 61c-26 27.333 -59.333 41 -100 41s-74 -13.667 -100 -41c-28.667 -29.333 -43 -83 -43 -161c0 -42.667 3.16699 -76 9.5 -100s17.5 -44.333 33.5 -61c26 -27.333 59.333 -41 100 -41s74 13.667 100 41
c28.667 29.333 43 82.333 43 159z" />
    <glyph glyph-name="p" unicode="p" horiz-adv-x="540" 
d="M471 240c0 -164 -61 -246 -183 -246c-34.667 0 -62 5.16699 -82 15.5s-39.333 27.833 -58 52.5v-292h-51v712h51v-62c20 25.333 39.667 43 59 53s46 15 80 15c122.667 0 184 -82.667 184 -248zM420 240c0 70.667 -10.833 122.168 -32.5 154.501s-56.167 48.5 -103.5 48.5
s-81.833 -16.167 -103.5 -48.5s-32.5 -83.5 -32.5 -153.5s10.833 -121.167 32.5 -153.5s56.167 -48.5 103.5 -48.5s81.833 16.167 103.5 48.5s32.5 83.166 32.5 152.499z" />
    <glyph glyph-name="q" unicode="q" horiz-adv-x="540" 
d="M443 -230h-51v292c-20 -24 -39.333 -41 -58 -51c-24 -11.333 -51.333 -17 -82 -17c-122 0 -183 82.333 -183 247s61 247 183 247c32 0 59.333 -5.66699 82 -17c18.667 -10 38 -27 58 -51v62h51v-712zM392 240c0 70.667 -10.833 122.168 -32.5 154.501
s-56.167 48.5 -103.5 48.5s-81.833 -16.167 -103.5 -48.5s-32.5 -83.5 -32.5 -153.5s10.833 -121.167 32.5 -153.5s56.167 -48.5 103.5 -48.5s81.833 16.167 103.5 48.5s32.5 83.166 32.5 152.499z" />
    <glyph glyph-name="r" unicode="r" horiz-adv-x="409" 
d="M405 442l-37.0029 -37c-15.333 14.667 -29.166 24.667 -41.499 30s-27.833 8 -46.5 8c-39.333 0 -71.166 -13.5 -95.499 -40.5s-36.5 -62.167 -36.5 -105.5v-297h-51v482h51v-64c10.667 14.667 20.667 25.667 30 33c30.667 24.667 68.334 37 113.001 37
c23.333 0 44.666 -4 63.999 -12c14.667 -6 31.334 -17.333 50.001 -34z" />
    <glyph glyph-name="s" unicode="s" horiz-adv-x="494" 
d="M438 139c0 -45.333 -17.502 -80.8311 -52.502 -106.498s-83.833 -38.5 -146.5 -38.5c-41.333 0 -79.333 6.66699 -114 20c-24 10 -49 26.333 -75 49l35 35c21.333 -19.333 41 -33 59 -41c29.333 -12 63 -18 101 -18c95.333 0 143 32.667 143 98
c0 49.333 -30.667 76.333 -92 81l-80 7c-96.667 8 -145 49.667 -145 125c0 42 15.667 75.5 47 100.5s73.333 37.5 126 37.5c34 0 67.667 -5.33301 101 -16c23.333 -8 46 -19.667 68 -35l-34 -34c-19.333 13.333 -38.333 23 -57 29c-25.333 8 -51.333 12 -78 12
c-39.333 0 -69.666 -8.16699 -90.999 -24.5s-32 -39.5 -32 -69.5c0 -24.667 7.83301 -43.5 23.5 -56.5s40.5 -20.833 74.5 -23.5l78 -7c48.667 -4.66699 84.334 -16.834 107.001 -36.501s34 -48.834 34 -87.501z" />
    <glyph glyph-name="t" unicode="t" horiz-adv-x="325" 
d="M269 0l-44 0.000976562c-36 0 -64.333 11.167 -85 33.5s-31 53.166 -31 92.499v318h-66v38h66v154h51v-154h109v-38h-109v-319c0 -53.333 24.667 -80 74 -80h35v-45z" />
    <glyph glyph-name="u" unicode="u" horiz-adv-x="559" 
d="M462 0l-50.999 0.00195312v57c-20.667 -21.333 -41 -36.666 -61 -45.999c-22.667 -11.333 -50 -17 -82 -17c-54.667 0 -97.834 16.167 -129.501 48.5s-47.5 76.166 -47.5 131.499v308h51v-299c0 -46.667 11.5 -82.334 34.5 -107.001s55.833 -37 98.5 -37
s76 12.667 100 38s36 60.666 36 105.999v299h51v-482z" />
    <glyph glyph-name="v" unicode="v" horiz-adv-x="430" 
d="M416 482l-176 -482h-50l-176 482h56l145 -422l145 422h56z" />
    <glyph glyph-name="w" unicode="w" horiz-adv-x="712" 
d="M698 482l-154 -482h-52l-136 402l-136 -402h-52l-154 482h56l123 -422l138 422h50l138 -422l123 422h56z" />
    <glyph glyph-name="x" unicode="x" horiz-adv-x="460" 
d="M420 0h-62l-127 203l-129 -203h-62l163 246l-156 236h62l122 -194l120 194h62l-156 -236z" />
    <glyph glyph-name="y" unicode="y" horiz-adv-x="430" 
d="M416 482l-224 -613c-9.33301 -25.333 -20.333 -44 -33 -56c-22.667 -20.667 -53 -31 -91 -31h-24v45h19c25.333 0 44 4.5 56 13.5s22.667 26.5 32 52.5l39 107l-176 482h56l145 -422l145 422h56z" />
    <glyph glyph-name="z" unicode="z" horiz-adv-x="452" 
d="M398 0h-344v48l290 389h-274v45h328v-48l-291 -389h291v-45z" />
    <glyph glyph-name="braceleft" unicode="{" horiz-adv-x="316" 
d="M266 -74l-14 -0.00585938c-46.667 0 -79 9 -97 27c-17.333 16.667 -26 48.334 -26 95.001v207c0 24.667 -5.5 44 -16.5 58s-25.833 21 -44.5 21h-18v44h18c18.667 0 33.5 7 44.5 21s16.5 33.333 16.5 58v207c0 46.667 8.66699 78.334 26 95.001c18 18 50.333 27 97 27h14
v-45h-13c-31.333 0 -51.333 -4.66699 -60 -14s-13 -30.666 -13 -63.999v-207c0 -25.333 -4.33301 -45.166 -13 -59.499s-24.667 -27.833 -48 -40.5c23.333 -12.667 39.333 -26.167 48 -40.5s13 -34.166 13 -59.499v-207c0 -33.333 4.33301 -54.666 13 -63.999
s28.667 -14 60 -14h13v-45z" />
    <glyph glyph-name="bar" unicode="|" horiz-adv-x="317" 
d="M184 -74h-51v860h51v-860z" />
    <glyph glyph-name="braceright" unicode="}" horiz-adv-x="316" 
d="M266 334l-18 0.00390625c-18.667 0 -33.5 -7 -44.5 -21s-16.5 -33.333 -16.5 -58v-207c0 -47.333 -8.66699 -79.5 -26 -96.5s-49.666 -25.5 -96.999 -25.5h-14v45h13c31.333 0 51.333 4.66699 60 14s13 30.666 13 63.999v207c0 25.333 4.33301 45.166 13 59.499
s24.667 27.833 48 40.5c-23.333 12.667 -39.333 26.167 -48 40.5s-13 34.166 -13 59.499v207c0 33.333 -4.33301 54.666 -13 63.999s-28.667 14 -60 14h-13v45h14c47.333 0 79.666 -8.5 96.999 -25.5s26 -49.167 26 -96.5v-207c0 -24.667 5.5 -44 16.5 -58
s25.833 -21 44.5 -21h18v-44z" />
    <glyph glyph-name="asciitilde" unicode="~" 
d="M461 277c-29.333 -28.667 -52.666 -46.667 -69.999 -54c-12 -5.33301 -26.333 -8 -43 -8c-27.333 0 -58 8.33301 -92 25c-38.667 19.333 -69 29 -91 29c-14.667 0 -27 -2.83301 -37 -8.5s-24.667 -17.834 -44 -36.501l-31 31c29.333 28.667 52.666 46.667 69.999 54
c12 5.33301 26.333 8 43 8c17.333 0 54 -11 110 -33c34.667 -14 59 -21 73 -21c14.667 0 27 2.83301 37 8.5s24.667 17.834 44 36.501z" />
    <glyph glyph-name="nbspace" unicode="&#xa0;" horiz-adv-x="255" 
 />
    <glyph glyph-name="sterling" unicode="&#xa3;" 
d="M465 0l-368.003 0.000976562v342h-64v38h64v122c0 65.333 19.333 117.666 58 156.999s90.334 59 155.001 59c58 0 109.667 -20.333 155 -61l-37 -37c-19.333 18.667 -37.666 31.667 -54.999 39s-38.666 11 -63.999 11c-50.667 0 -89.667 -15.5 -117 -46.5
s-41 -75.167 -41 -132.5v-111h158v-38h-158v-294h314v-48z" />
    <glyph glyph-name="currency" unicode="&#xa4;" 
d="M465 54c-42 -40.667 -93.667 -60.998 -155 -60.998c-64.667 0 -116.334 19.667 -155.001 59s-58 91.666 -58 156.999v85h-63v38h63v62h-63v38h63v70c0 65.333 19.333 117.666 58 156.999s90.334 59 155.001 59c58.667 0 107.667 -18 147 -54l-29 -44
c-19.333 18.667 -37.666 31.667 -54.999 39s-38.666 11 -63.999 11c-50.667 0 -89.667 -15.5 -117 -46.5s-41 -75.167 -41 -132.5v-59h200l-10 -38h-190v-62h170l-10 -38h-160v-74c0 -57.333 13.667 -101.5 41 -132.5s66.333 -46.5 117 -46.5
c25.333 0 46.666 3.66699 63.999 11s35.666 20.333 54.999 39z" />
    <glyph glyph-name="brokenbar" unicode="&#xa6;" horiz-adv-x="328" 
d="M184 436h-51v350h51v-350zM184 -74h-51v350h51v-350z" />
    <glyph glyph-name="section" unicode="&#xa7;" horiz-adv-x="566" 
d="M469 247c0 -48.667 -16.3359 -90.9971 -49.0029 -126.997c-13.333 -14 -33.666 -28.333 -60.999 -43c24.667 -10 43.334 -21 56.001 -33c31.333 -29.333 47 -67 47 -113c0 -48.667 -16.833 -88.667 -50.5 -120s-76.834 -47 -129.501 -47c-56 0 -100.667 16 -134 48
c-14 13.333 -25 28.333 -33 45c-7.33301 14.667 -12.666 35.334 -15.999 62.001h54c10 -71.333 53 -107 129 -107c39.333 0 70.166 10.333 92.499 31s33.5 49 33.5 85c0 27.333 -8.33301 51.333 -25 72s-39.667 35 -69 43l-83 23c-40.667 11.333 -73.167 33.333 -97.5 66
s-36.5 70.667 -36.5 114c0 49.333 16.333 92 49 128c13.333 14 33.666 28.333 60.999 43c-27.333 13.333 -47.666 26.666 -60.999 39.999c-25.333 25.333 -38 58.666 -38 99.999c0 47.333 16.167 86 48.5 116s74.833 45 127.5 45c54 0 97.667 -16 131 -48
c13.333 -12 24 -26.667 32 -44c6.66699 -14.667 11.334 -34.334 14.001 -59.001h-53c-5.33301 37.333 -17.666 64 -36.999 80s-49 24 -89 24c-38 0 -67.667 -9.83301 -89 -29.5s-32 -46.834 -32 -81.501c0 -56 30.333 -92.333 91 -109l83 -23
c41.333 -11.333 74 -33.333 98 -66s36 -71 36 -115zM414.997 247.003c0 43.333 -12 77.833 -36 103.5s-56 38.5 -96 38.5c-39.333 0 -71.166 -12.833 -95.499 -38.5s-36.5 -59.167 -36.5 -100.5c0 -44 12 -79.167 36 -105.5s56 -39.5 96 -39.5c39.333 0 71.166 13 95.499 39
s36.5 60.333 36.5 103z" />
    <glyph glyph-name="copyright" unicode="&#xa9;" horiz-adv-x="894" 
d="M809 363c0 -103.333 -35 -190.667 -105 -262s-155.667 -107 -257 -107c-100 0 -185.333 35.333 -256 106s-106 156 -106 256s35.333 185.333 106 256s156 106 256 106c98 0 182.833 -35.167 254.5 -105.5s107.5 -153.5 107.5 -249.5zM761 349.999
c0 89.333 -30.667 165.67 -92 229.003s-135.333 95 -222 95c-85.333 0 -159 -31.333 -221 -94s-93 -137.334 -93 -224.001s31 -161.334 93 -224.001s135.667 -94 221 -94c84 0 157.333 31.167 220 93.5s94 135.166 94 218.499zM582 202.003
c-24.667 -20.667 -45.666 -34.334 -62.999 -41.001c-18 -7.33301 -40.333 -11 -67 -11c-55.333 0 -98.833 18.333 -130.5 55s-47.5 87 -47.5 151s15.833 114.5 47.5 151.5s75.167 55.5 130.5 55.5c22.667 0 44 -3.33301 64 -10c18.667 -6.66699 40.667 -21 66 -43l-30 -30
c-19.333 16.667 -35.833 27.834 -49.5 33.501s-30.5 8.5 -50.5 8.5c-88.667 0 -133 -57 -133 -171c0 -52 11.5 -91.667 34.5 -119s56.167 -41 99.5 -41c20 0 36.667 2.83301 50 8.5s29.666 16.5 48.999 32.5z" />
    <glyph glyph-name="guillemotleft" unicode="&#xab;" horiz-adv-x="527" 
d="M445 69l-196 196l196 196v-66l-130 -130l130 -130v-66zM238 69l-196 196l196 196v-66l-130 -130l130 -130v-66z" />
    <glyph glyph-name="logicalnot" unicode="&#xac;" 
d="M461 107h-47v133h-361v47h408v-180z" />
    <glyph glyph-name="registered" unicode="&#xae;" horiz-adv-x="438" 
d="M407 534c0 -53.333 -18.167 -98.5 -54.5 -135.5s-80.833 -55.5 -133.5 -55.5c-52 0 -96.333 18.333 -133 55s-55 81 -55 133s18.333 96.333 55 133s81 55 133 55c50.667 0 94.667 -18.333 132 -55s56 -80 56 -130zM383 528c0 46.667 -16 86.5 -48 119.5
s-70.667 49.5 -116 49.5c-44.667 0 -83.167 -16.333 -115.5 -49s-48.5 -71.667 -48.5 -117s16.167 -84.333 48.5 -117s70.833 -49 115.5 -49c44 0 82.333 16.167 115 48.5s49 70.5 49 114.5zM296 427h-27l-51 87h-35v-87h-23v208h67c17.333 0 32.333 -6 45 -18
s19 -26.667 19 -44c0 -14 -4.33301 -26 -13 -36s-20 -17 -34 -21zM268 574c0 11.333 -4.16699 20.833 -12.5 28.5s-18.833 11.5 -31.5 11.5h-41v-80h41c12.667 0 23.167 3.83301 31.5 11.5s12.5 17.167 12.5 28.5z" />
    <glyph glyph-name="degree" unicode="&#xb0;" horiz-adv-x="458" 
d="M386 565c0 -44.667 -15.167 -82.5 -45.5 -113.5s-67.5 -46.5 -111.5 -46.5c-43.333 0 -80.333 15.333 -111 46s-46 67.667 -46 111s15.333 80.333 46 111s67.667 46 111 46c42.667 0 79.5 -15.167 110.5 -45.5s46.5 -66.5 46.5 -108.5zM341 560
c0 33.333 -10.667 61.167 -32 83.5s-48.333 33.5 -81 33.5c-32 0 -58.5 -10.833 -79.5 -32.5s-31.5 -49.167 -31.5 -82.5c0 -32.667 10.667 -60 32 -82s48 -33 80 -33c31.333 0 57.833 10.833 79.5 32.5s32.5 48.5 32.5 80.5z" />
    <glyph glyph-name="plusminus" unicode="&#xb1;" 
d="M461 270h-180v-182h-47v182h-181v47h181v181h47v-181h180v-47zM461 0h-408v47h408v-47z" />
    <glyph glyph-name="paragraph" unicode="&#xb6;" horiz-adv-x="579" 
d="M469 -230l-51 -0.00195312v894h-123v-894h-51v562c-34.667 2 -62 7 -82 15c-36 14.667 -64.5 37.834 -85.5 69.501s-31.5 66.834 -31.5 105.501c0 55.333 19.833 100.833 59.5 136.5s90.167 53.5 151.5 53.5h213v-942z" />
    <glyph glyph-name="guillemotright" unicode="&#xbb;" horiz-adv-x="527" 
d="M485 265l-196 -196v66l130 130l-130 130v66zM278 265l-196 -196v66l130 130l-130 130v66z" />
    <glyph glyph-name="divide" unicode="&#xf7;" 
d="M303 434c0 -12.667 -4.5 -23.667 -13.5 -33s-19.833 -14 -32.5 -14s-23.5 4.5 -32.5 13.5s-13.5 19.833 -13.5 32.5s4.5 23.5 13.5 32.5s19.833 13.5 32.5 13.5s23.5 -4.5 32.5 -13.5s13.5 -19.5 13.5 -31.5zM461 240h-408v47h408v-47zM303 95
c0 -12.667 -4.5 -23.667 -13.5 -33s-19.833 -14 -32.5 -14s-23.5 4.5 -32.5 13.5s-13.5 19.833 -13.5 32.5s4.5 23.5 13.5 32.5s19.833 13.5 32.5 13.5s23.5 -4.5 32.5 -13.5s13.5 -19.5 13.5 -31.5z" />
    <glyph glyph-name="florin" unicode="&#x192;" horiz-adv-x="394" 
d="M364 667l-43 0.000976562c-49.333 0 -78.666 -26.667 -87.999 -80l-36 -207h109v-38h-116l-101 -572h-51l101 572h-109v38h116l36 206c7.33301 39.333 23.166 70.166 47.499 92.499s54.5 33.5 90.5 33.5h44v-45z" />
    <glyph glyph-name="Delta" unicode="&#x394;" horiz-adv-x="591" 
d="M581 0h-571l262 712h47zM511 48l-216 592l-215 -592h431z" />
    <glyph glyph-name="mu" unicode="&#x3bc;" horiz-adv-x="556" 
d="M459 0l-51.001 0.00195312v57c-20.667 -21.333 -41 -36.666 -61 -45.999c-22.667 -11.333 -50 -17 -82 -17c-27.333 0 -53 4.66699 -77 14c-15.333 5.33301 -31.666 15.666 -48.999 30.999v-269h-51v712h51v-299c0 -46.667 11.5 -82.334 34.5 -107.001
s55.833 -37 98.5 -37s76 12.667 100 38s36 60.666 36 105.999v299h51v-482z" />
    <glyph glyph-name="afii10023" unicode="&#x401;" horiz-adv-x="598" 
d="M455 829c0 -10.667 -3.66699 -19.834 -11 -27.501s-16 -11.5 -26 -11.5c-10.667 0 -19.667 3.66699 -27 11s-11 16 -11 26c0 10.667 3.66699 19.667 11 27s16 11 26 11s18.833 -3.66699 26.5 -11s11.5 -15.666 11.5 -24.999zM248 829
c0 -10.667 -3.66699 -19.834 -11 -27.501s-16 -11.5 -26 -11.5c-10.667 0 -19.667 3.66699 -27 11s-11 16 -11 26c0 10.667 3.66699 19.667 11 27s16 11 26 11s18.833 -3.66699 26.5 -11s11.5 -15.666 11.5 -24.999zM542 0h-432v712h432v-48h-378v-281h322v-48h-322v-287
h378v-48z" />
    <glyph glyph-name="afii10051" unicode="&#x402;" horiz-adv-x="743" 
d="M646 -9c0 -65.333 -19.3281 -117.667 -57.9951 -157s-90.334 -59 -155.001 -59c-31.333 0 -61 5.66699 -89 17c-20 8 -42 22.667 -66 44l37 37c18.667 -18.667 36.667 -31.667 54 -39s38.666 -11 63.999 -11c51.333 0 90.666 15.5 117.999 46.5s41 75.167 41 132.5v227
c0 50 -13.833 85.5 -41.5 106.5s-59.834 31.5 -96.501 31.5h-193v-367h-54v664h-182v48h479v-48h-243v-249h193c55.333 0 101.166 -14.667 137.499 -44s54.5 -74.333 54.5 -135v-245z" />
    <glyph glyph-name="afii10052" unicode="&#x403;" horiz-adv-x="564" 
d="M443 927l-106 -147h-58l97 147h67zM540 664h-368v-664h-54v712h422v-48z" />
    <glyph glyph-name="afii10053" unicode="&#x404;" horiz-adv-x="596" 
d="M528 83c-34 -30.667 -65.6689 -53.168 -95.002 -67.501s-64 -21.5 -104 -21.5c-69.333 0 -129.333 24.333 -180 73c-28.667 27.333 -46.834 60.333 -54.501 99s-11.5 102 -11.5 190c0 93.333 3 154 9 182c8.66699 42 27.667 77.667 57 107
c48.667 48.667 108.334 73 179.001 73c39.333 0 74.333 -7.5 105 -22.5s62.334 -37.167 95.001 -66.5l-36 -36c-28 26.667 -53.833 46.167 -77.5 58.5s-52.167 18.5 -85.5 18.5c-43.333 0 -83 -13.333 -119 -40s-57.333 -61 -64 -103c-5.33301 -36 -8.33301 -84 -9 -144h295
v-48h-295v-26.5v-29c0 -4.33301 0.166992 -13.333 0.5 -27s1 -23.5 2 -29.5s2.33301 -15 4 -27s4 -21.5 7 -28.5l10 -24.5c3.66699 -9.33301 8.16699 -17.666 13.5 -24.999s11.333 -14.333 18 -21c36.667 -36.667 82.334 -55 137.001 -55c33.333 0 61.833 6.16699 85.5 18.5
s49.5 31.833 77.5 58.5z" />
    <glyph glyph-name="afii10054" unicode="&#x405;" horiz-adv-x="587" 
d="M528 190c0 -61.333 -21.998 -109.333 -65.998 -144s-104.667 -52 -182 -52c-47.333 0 -90 7.66699 -128 23c-32.667 14 -66.334 37.667 -101.001 71l38 38c35.333 -33.333 66.333 -55.333 93 -66c30 -12 64.667 -18 104 -18c59.333 0 105.5 13 138.5 39
s49.5 62.333 49.5 109c0 42.667 -13 75.667 -39 99c-19.333 18 -53.666 30.667 -102.999 38l-83 13c-122 19.333 -183 80.333 -183 183c0 60.667 20 108.334 60 143.001s95.333 52 166 52c40.667 0 75.667 -5.66699 105 -17c27.333 -10 59 -30 95 -60l-35 -35
c-28.667 24.667 -55 41.667 -79 51c-26 10 -56.333 15 -91 15c-52.667 0 -93.834 -13 -123.501 -39s-44.5 -62 -44.5 -108c0 -41.333 12.333 -72.333 37 -93c28.667 -23.333 64 -38 106 -44l77 -12c57.333 -8.66699 99.666 -24.334 126.999 -47.001
c41.333 -34 62 -80.333 62 -139z" />
    <glyph glyph-name="afii10055" unicode="&#x406;" horiz-adv-x="274" 
d="M164 0h-54v712h54v-712z" />
    <glyph glyph-name="afii10056" unicode="&#x407;" horiz-adv-x="274" 
d="M279 829c0 -10.667 -3.66699 -19.834 -11 -27.501s-16 -11.5 -26 -11.5c-10.667 0 -19.667 3.66699 -27 11s-11 16 -11 26c0 10.667 3.66699 19.667 11 27s16 11 26 11s18.833 -3.66699 26.5 -11s11.5 -15.666 11.5 -24.999zM72 829
c0 -10.667 -3.66699 -19.834 -11 -27.501s-16 -11.5 -26 -11.5c-10.667 0 -19.667 3.66699 -27 11s-11 16 -11 26c0 10.667 3.66699 19.667 11 27s16 11 26 11s18.833 -3.66699 26.5 -11s11.5 -15.666 11.5 -24.999zM164 0h-54v712h54v-712z" />
    <glyph glyph-name="afii10057" unicode="&#x408;" horiz-adv-x="498" 
d="M398 210c0 -65.333 -19.3301 -117.667 -57.9971 -157s-90.334 -59 -155.001 -59c-31.333 0 -61 5.66699 -89 17c-20 8 -42 22.667 -66 44l37 37c18.667 -18.667 36.667 -31.667 54 -39s38.666 -11 63.999 -11c51.333 0 90.666 15.5 117.999 46.5s41 75.167 41 132.5v491
h54v-502z" />
    <glyph glyph-name="afii10058" unicode="&#x409;" horiz-adv-x="1056" 
d="M1013 205c0 -62 -19.499 -111.666 -58.499 -148.999s-91.167 -56 -156.5 -56h-263v664h-277l-11 -327c-4 -123.333 -21.833 -210.333 -53.5 -261s-81.167 -76 -148.5 -76h-39v48h28c34.667 0 62.167 7.16699 82.5 21.5s37.666 45.166 51.999 92.499s22.833 115 25.5 203
l11 347h384v-302h209c65.333 0 117.5 -18.667 156.5 -56s58.5 -87 58.5 -149zM959.001 205.001c0 50 -14.5 88.667 -43.5 116s-70.167 41 -123.5 41h-203v-314h203c53.333 0 94.5 13.667 123.5 41s43.5 66 43.5 116z" />
    <glyph glyph-name="afii10059" unicode="&#x40a;" horiz-adv-x="1056" 
d="M1013 205c0 -62 -19.5 -111.667 -58.5 -149s-91.167 -56 -156.5 -56h-263v362h-371v-362h-54v712h54v-302h371v302h54v-302h209c65.333 0 117.5 -18.667 156.5 -56s58.5 -87 58.5 -149zM959 205c0 50 -14.5 88.667 -43.5 116s-70.167 41 -123.5 41h-203v-314h203
c53.333 0 94.5 13.667 123.5 41s43.5 66 43.5 116z" />
    <glyph glyph-name="afii10060" unicode="&#x40b;" horiz-adv-x="743" 
d="M646 0h-53.998v244c0 50 -13.833 85.5 -41.5 106.5s-59.834 31.5 -96.501 31.5c-50.667 0 -115 -9 -193 -27v-355h-54v664h-182v48h479v-48h-243v-261c82 18 146.333 27 193 27c55.333 0 101.166 -14.667 137.499 -44s54.5 -74.333 54.5 -135v-251z" />
    <glyph glyph-name="afii10061" unicode="&#x40c;" horiz-adv-x="645" 
d="M443 927l-106 -147h-58l97 147h67zM627 0h-64l-229 399l-170 -206v-193h-54v712h54v-445l361 445h65l-220 -272z" />
    <glyph glyph-name="afii10062" unicode="&#x40e;" horiz-adv-x="534" 
d="M426 885c-18.667 -83.333 -71.667 -125 -159 -125s-140.333 41.667 -159 125h47c14 -53.333 51.667 -80 113 -80c60 0 97 26.667 111 80h47zM522 712l-258.999 -604c-30.667 -72 -75.334 -108 -134.001 -108h-54v48h42c26 0 46.333 6.16699 61 18.5s28 32.833 40 61.5
l31 74l-237 510h58l207 -449l187 449h58z" />
    <glyph glyph-name="afii10145" unicode="&#x40f;" horiz-adv-x="699" 
d="M589 0h-212v-190h-54v190h-213v712h54v-664h371v664h54v-712z" />
    <glyph glyph-name="afii10017" unicode="&#x410;" horiz-adv-x="600" 
d="M586 0h-58l-62 173h-332l-62 -173h-58l262 712h48zM449 221l-149 419l-149 -419h298z" />
    <glyph glyph-name="afii10018" unicode="&#x411;" horiz-adv-x="657" 
d="M588 205c0 -62 -19.5 -111.667 -58.5 -149s-91.167 -56 -156.5 -56h-263v712h434v-48h-380v-254h209c65.333 0 117.5 -18.667 156.5 -56s58.5 -87 58.5 -149zM534 205c0 50 -14.5 88.667 -43.5 116s-70.167 41 -123.5 41h-203v-314h203c53.333 0 94.5 13.667 123.5 41
s43.5 66 43.5 116z" />
    <glyph glyph-name="afii10019" unicode="&#x412;" horiz-adv-x="671" 
d="M589 192c0 -60 -18.5 -107 -55.5 -141s-88.167 -51 -153.5 -51h-270v712h262c61.333 0 111 -17 149 -51s57 -78.333 57 -133c0 -52 -18 -95 -54 -129c-14 -12.667 -33 -23.667 -57 -33c28 -11.333 50 -24 66 -38c37.333 -34 56 -79.333 56 -136zM524 526
c0 43.333 -14 77.168 -42 101.501s-66.667 36.5 -116 36.5h-202v-276h202c50 0 88.833 12.167 116.5 36.5s41.5 58.166 41.5 101.499zM535 194.002c0 44.667 -14.5 80.167 -43.5 106.5s-68.167 39.5 -117.5 39.5h-210v-292h210c49.333 0 88.5 13.167 117.5 39.5
s43.5 61.833 43.5 106.5z" />
    <glyph glyph-name="afii10020" unicode="&#x413;" horiz-adv-x="564" 
d="M540 664h-368v-664h-54v712h422v-48z" />
    <glyph glyph-name="afii10021" unicode="&#x414;" horiz-adv-x="699" 
d="M653 -190l-54 -0.00195312v190h-511v-190h-54v238h70c35.333 82.667 59.333 162.334 72 239.001s19 188.334 19 335.001v90h373v-664h85v-238zM514 47.998v616h-265v-100c0 -134.667 -5.66699 -232.5 -17 -293.5s-34.333 -135.167 -69 -222.5h351z" />
    <glyph glyph-name="afii10022" unicode="&#x415;" horiz-adv-x="598" 
d="M542 0h-432v712h432v-48h-378v-281h322v-48h-322v-287h378v-48z" />
    <glyph glyph-name="afii10024" unicode="&#x416;" horiz-adv-x="922" 
d="M910 0h-64l-222 383l-136 -180v-203h-54v203l-136 180l-222 -383h-64l252 428l-216 284h65l321 -435v435h54v-435l321 435h65l-216 -284z" />
    <glyph glyph-name="afii10025" unicode="&#x417;" horiz-adv-x="587" 
d="M505 192c0 -60 -22 -108.002 -66 -144.002s-99.333 -54 -166 -54c-50 0 -91.5 6.83301 -124.5 20.5s-66.833 38.167 -101.5 73.5l38 38c33.333 -31.333 63.333 -53.166 90 -65.499s61.334 -18.5 104.001 -18.5c50 0 91.167 13.667 123.5 41s48.5 64.333 48.5 111
c0 97.333 -52.667 146 -158 146h-79v48h82c45.333 0 80.5 12.333 105.5 37s37.5 60 37.5 106c0 44 -14.333 78.167 -43 102.5s-67.334 36.5 -116.001 36.5c-66.667 0 -125.334 -22 -176.001 -66l-32 35c33.333 28 65.833 48.167 97.5 60.5s68.5 18.5 110.5 18.5
c62.667 0 113.834 -17 153.501 -51s59.5 -79 59.5 -135c0 -80 -35.667 -135 -107 -165c79.333 -27.333 119 -85.666 119 -174.999z" />
    <glyph glyph-name="afii10026" unicode="&#x418;" horiz-adv-x="720" 
d="M610 0h-54v619l-392 -619h-54v712h54v-617l392 617h54v-712z" />
    <glyph glyph-name="afii10027" unicode="&#x419;" horiz-adv-x="720" 
d="M519 885c-18.667 -83.333 -71.667 -125 -159 -125s-140.333 41.667 -159 125h47c14 -53.333 51.667 -80 113 -80c60 0 97 26.667 111 80h47zM610 0h-54v619l-392 -619h-54v712h54v-617l392 617h54v-712z" />
    <glyph glyph-name="afii10028" unicode="&#x41a;" horiz-adv-x="645" 
d="M627 0h-64l-229 399l-170 -206v-193h-54v712h54v-445l361 445h65l-220 -272z" />
    <glyph glyph-name="afii10029" unicode="&#x41b;" horiz-adv-x="699" 
d="M589 0l-53.999 0.000976562v664h-277l-11 -327c-4 -123.333 -21.833 -210.333 -53.5 -261s-81.167 -76 -148.5 -76h-39v48h28c34.667 0 62.167 7.16699 82.5 21.5s37.666 45.166 51.999 92.499s22.833 115 25.5 203l11 347h384v-712z" />
    <glyph glyph-name="afii10030" unicode="&#x41c;" horiz-adv-x="818" 
d="M708 0h-54v587l-216 -487h-54l-220 487v-587h-54v712h54l248 -549l242 549h54v-712z" />
    <glyph glyph-name="afii10031" unicode="&#x41d;" horiz-adv-x="699" 
d="M589 0h-54v335h-371v-335h-54v712h54v-329h371v329h54v-712z" />
    <glyph glyph-name="afii10032" unicode="&#x41e;" horiz-adv-x="652" 
d="M570 356c0 -90 -3.83203 -153.497 -11.499 -190.497s-25.834 -69.833 -54.501 -98.5c-48.667 -48.667 -108 -73 -178 -73s-129.333 24.333 -178 73c-29.333 29.333 -47.666 63 -54.999 101s-11 100.667 -11 188v24c0 50 0.666992 86.667 2 110s7 49.666 17 78.999
s25.667 54.666 47 75.999c48.667 48.667 108 73 178 73s129.333 -24.333 178 -73c8 -8 15.167 -16.333 21.5 -25s11.833 -18.5 16.5 -29.5l12 -28.5c3.33301 -8 6 -18.833 8 -32.5s3.66699 -24.334 5 -32.001s2.16602 -19.5 2.49902 -35.5s0.5 -27.167 0.5 -33.5v-37v-35.5z
M516.001 346.003v27c0 76 -3.5 129.667 -10.5 161s-21.833 58.333 -44.5 81c-36.667 36.667 -81.667 55 -135 55s-98.333 -18.333 -135 -55c-23.333 -23.333 -38.333 -52.666 -45 -87.999s-10 -92.333 -10 -171v-31c0 -68.667 3.66699 -118.334 11 -149.001s22 -57 44 -79
c36.667 -36.667 81.667 -55 135 -55s98.333 18.333 135 55c18 18 31.167 40.667 39.5 68s13 51.833 14 73.5s1.5 57.5 1.5 107.5z" />
    <glyph glyph-name="afii10033" unicode="&#x41f;" horiz-adv-x="699" 
d="M589 0h-54v664h-371v-664h-54v712h479v-712z" />
    <glyph glyph-name="afii10034" unicode="&#x420;" horiz-adv-x="631" 
d="M586 507c0 -62 -19.5 -111.667 -58.5 -149s-91.167 -56 -156.5 -56h-207v-302h-54v712h261c65.333 0 117.5 -18.667 156.5 -56s58.5 -87 58.5 -149zM532 507c0 50 -14.5 88.667 -43.5 116s-70.167 41 -123.5 41h-201v-314h201c53.333 0 94.5 13.667 123.5 41
s43.5 66 43.5 116z" />
    <glyph glyph-name="afii10035" unicode="&#x421;" horiz-adv-x="596" 
d="M527 83c-34 -30.667 -65.6689 -53.167 -95.002 -67.5s-64 -21.5 -104 -21.5c-69.333 0 -129.333 24.333 -180 73c-28.667 27.333 -46.834 60.333 -54.501 99s-11.5 102 -11.5 190c0 93.333 3 154 9 182c8.66699 42 27.667 77.667 57 107
c48.667 48.667 108.334 73 179.001 73c39.333 0 74.333 -7.5 105 -22.5s62.334 -37.167 95.001 -66.5l-36 -36c-28 26.667 -53.833 46.167 -77.5 58.5s-52.167 18.5 -85.5 18.5c-43.333 0 -83 -13.333 -119 -40s-57.333 -61 -64 -103c-6 -34.667 -9 -91.667 -9 -171v-30
c0 -69.333 3.66699 -119.333 11 -150s22 -57 44 -79c36.667 -36.667 82.334 -55 137.001 -55c33.333 0 61.833 6.16699 85.5 18.5s49.5 31.833 77.5 58.5z" />
    <glyph glyph-name="afii10036" unicode="&#x422;" horiz-adv-x="539" 
d="M509 664h-213v-664h-54v664h-212v48h479v-48z" />
    <glyph glyph-name="afii10037" unicode="&#x423;" horiz-adv-x="534" 
d="M522 712l-258.999 -604c-30.667 -72 -75.334 -108 -134.001 -108h-54v48h42c26 0 46.167 6 60.5 18s27.833 32.667 40.5 62l31 74l-237 510h58l207 -449l187 449h58z" />
    <glyph glyph-name="afii10038" unicode="&#x424;" horiz-adv-x="722" 
d="M664 371c0 -88 -24.6709 -157.167 -74.0039 -207.5s-116.666 -75.5 -201.999 -75.5v-91h-54v91c-85.333 0 -152.666 25.167 -201.999 75.5s-74 119.5 -74 207.5s24.833 157.167 74.5 207.5s116.834 75.5 201.501 75.5v61h54v-61c84.667 0 151.834 -25.167 201.501 -75.5
s74.5 -119.5 74.5 -207.5zM609.996 370c0 71.333 -18.833 128.499 -56.5 171.499s-92.834 64.5 -165.501 64.5v-470c70.667 0 125.334 21.333 164.001 64s58 99.334 58 170.001zM333.996 135.999v470.001c-72.667 0 -127.834 -21.5 -165.501 -64.5
s-56.5 -100.167 -56.5 -171.5c0 -70.667 19.333 -127.334 58 -170.001s93.334 -64 164.001 -64z" />
    <glyph glyph-name="afii10039" unicode="&#x425;" horiz-adv-x="532" 
d="M514 0h-63l-186 317l-186 -317h-61l218 365l-204 347h63l170 -299l171 299h62l-204 -347z" />
    <glyph glyph-name="afii10040" unicode="&#x426;" horiz-adv-x="720" 
d="M674 -190h-54v190h-510v712h54v-664h371v664h54v-664h85v-238z" />
    <glyph glyph-name="afii10041" unicode="&#x427;" horiz-adv-x="644" 
d="M534 0h-54v337c-14.667 -18 -39.334 -34.667 -74.001 -50s-68.667 -23 -102 -23c-71.333 0 -126.5 18.833 -165.5 56.5s-58.5 91.167 -58.5 160.5v231h54v-224c0 -117.333 56.667 -176 170 -176c42.667 0 79.334 9.16699 110.001 27.5s52.667 44.5 66 78.5v294h54v-712z
" />
    <glyph glyph-name="afii10042" unicode="&#x428;" horiz-adv-x="1000" 
d="M890 0h-780v712h54v-664h309v664h54v-664h309v664h54v-712z" />
    <glyph glyph-name="afii10043" unicode="&#x429;" horiz-adv-x="1021" 
d="M975 -190h-54v190h-811v712h54v-664h309v664h54v-664h309v664h54v-664h85v-238z" />
    <glyph glyph-name="afii10044" unicode="&#x42a;" horiz-adv-x="758" 
d="M715 205c0 -62 -19.5 -111.667 -58.5 -149s-91.167 -56 -156.5 -56h-263v664h-207v48h261v-302h209c65.333 0 117.5 -18.667 156.5 -56s58.5 -87 58.5 -149zM661 205c0 50 -14.5 88.667 -43.5 116s-70.167 41 -123.5 41h-203v-314h203c53.333 0 94.5 13.667 123.5 41
s43.5 66 43.5 116z" />
    <glyph glyph-name="afii10045" unicode="&#x42b;" horiz-adv-x="854" 
d="M744 0h-54v712h54v-712zM588 205c0 -62 -19.5 -111.667 -58.5 -149s-91.167 -56 -156.5 -56h-263v712h54v-302h209c65.333 0 117.5 -18.667 156.5 -56s58.5 -87 58.5 -149zM534 205c0 50 -14.5 88.667 -43.5 116s-70.167 41 -123.5 41h-203v-314h203
c53.333 0 94.5 13.667 123.5 41s43.5 66 43.5 116z" />
    <glyph glyph-name="afii10046" unicode="&#x42c;" horiz-adv-x="631" 
d="M588 205c0 -62 -19.5 -111.667 -58.5 -149s-91.167 -56 -156.5 -56h-263v712h54v-302h209c65.333 0 117.5 -18.667 156.5 -56s58.5 -87 58.5 -149zM534 205c0 50 -14.5 88.667 -43.5 116s-70.167 41 -123.5 41h-203v-314h203c53.333 0 94.5 13.667 123.5 41
s43.5 66 43.5 116z" />
    <glyph glyph-name="afii10047" unicode="&#x42d;" horiz-adv-x="596" 
d="M513 356c0 -88 -3.83496 -151.333 -11.502 -190s-25.834 -71.667 -54.501 -99c-50.667 -48.667 -110.667 -73 -180 -73c-40 0 -74.667 7.16699 -104 21.5s-61 36.833 -95 67.5l36 36c28 -26.667 53.833 -46.167 77.5 -58.5s52.167 -18.5 85.5 -18.5
c54.667 0 100.334 18.333 137.001 55c6.66699 6.66699 12.667 13.667 18 21s9.83301 15.666 13.5 24.999l10 24.5c3 7 5.33301 16.5 7 28.5s3 21 4 27s1.66699 15.833 2 29.5s0.5 22.667 0.5 27v29v26.5h-295v48h295c-0.666992 60 -3.66699 108 -9 144
c-6.66699 42 -28 76.333 -64 103s-75.667 40 -119 40c-33.333 0 -61.833 -6.16699 -85.5 -18.5s-49.5 -31.833 -77.5 -58.5l-36 36c32.667 29.333 64.334 51.5 95.001 66.5s65.667 22.5 105 22.5c70.667 0 130.334 -24.333 179.001 -73c16 -16 28.667 -32.5 38 -49.5
s16 -38.167 20 -63.5s6.33301 -47.166 7 -65.499s1 -47.833 1 -88.5v-22z" />
    <glyph glyph-name="afii10048" unicode="&#x42e;" horiz-adv-x="900" 
d="M818 356c0 -90 -3.83105 -153.499 -11.498 -190.499s-25.834 -69.833 -54.501 -98.5c-48.667 -48.667 -108 -73 -178 -73s-129.333 24.333 -178 73c-28 28 -46 60.333 -54 97s-12 93.667 -12 171h-166v-335h-54v712h54v-329h166c0 37.333 0.333008 65 1 83s3 39.5 7 64.5
s10.667 46.333 20 64s22 34.5 38 50.5c48.667 48.667 108 73 178 73s129.333 -24.333 178 -73c8 -8 15.167 -16.333 21.5 -25s11.833 -18.5 16.5 -29.5l12 -28.5c3.33301 -8 6 -18.833 8 -32.5s3.66699 -24.334 5 -32.001s2.16602 -19.5 2.49902 -35.5
s0.5 -27.167 0.5 -33.5v-37v-35.5zM764.002 346.001v27c0 76 -3.5 129.667 -10.5 161s-21.833 58.333 -44.5 81c-36.667 36.667 -81.667 55 -135 55s-98.333 -18.333 -135 -55c-23.333 -23.333 -38.333 -52.666 -45 -87.999s-10 -92.333 -10 -171v-31
c0 -68.667 3.66699 -118.334 11 -149.001s22 -57 44 -79c36.667 -36.667 81.667 -55 135 -55s98.333 18.333 135 55c18 18 31.167 40.667 39.5 68s13 51.833 14 73.5s1.5 57.5 1.5 107.5z" />
    <glyph glyph-name="afii10049" unicode="&#x42f;" horiz-adv-x="657" 
d="M547 0l-54 -0.000976562v302h-200l-166 -302h-63l170 307c-50 9.33301 -89.667 31.833 -119 67.5s-44 79.834 -44 132.501c0 62 19.5 111.667 58.5 149s91.167 56 156.5 56h261v-712zM493 349.999v314h-201c-53.333 0 -94.5 -13.667 -123.5 -41s-43.5 -66 -43.5 -116
s14.5 -88.667 43.5 -116s70.167 -41 123.5 -41h201z" />
    <glyph glyph-name="afii10065" unicode="&#x430;" horiz-adv-x="524" 
d="M431 0h-51.001v48c-22 -20 -41 -33.333 -57 -40c-22.667 -9.33301 -53.334 -14 -92.001 -14c-116.667 0 -175 46.333 -175 139c0 43.333 14.833 77.166 44.5 101.499s70.834 36.5 123.501 36.5h156v54c0 40.667 -11.167 70.5 -33.5 89.5s-57.833 28.5 -106.5 28.5
c-33.333 0 -60.666 -5.33301 -81.999 -16c-16 -8.66699 -31.667 -23.667 -47 -45l-37 32c20 24.667 40 42.334 60 53.001c28 14 64 21 108 21c126 0 189 -52.667 189 -158v-330zM379.999 168v62.001h-150c-82 0 -123 -32.333 -123 -97c0 -32.667 10.5 -56.5 31.5 -71.5
s54.167 -22.5 99.5 -22.5c50.667 0 87 10.167 109 30.5s33 53.166 33 98.499z" />
    <glyph glyph-name="afii10066" unicode="&#x431;" horiz-adv-x="526" 
d="M457 241c0 -90.667 -19.666 -155.664 -58.999 -194.997c-33.333 -34.667 -77.333 -52 -132 -52c-47.333 0 -86.833 13.167 -118.5 39.5s-52.5 62.5 -62.5 108.5c-6.66699 29.333 -10 101 -10 215c0 78 4 138.333 12 181s26 78 54 106
c17.333 17.333 39.5 31.166 66.5 41.499s50.667 16.833 71 19.5s46.666 5 78.999 7s53.833 3.66699 64.5 5v-49c-5.33301 -0.666992 -29.666 -2.33398 -72.999 -5.00098s-79 -7.66699 -107 -15s-50.333 -19.333 -67 -36c-11.333 -11.333 -20.833 -24.333 -28.5 -39
s-13.167 -31.334 -16.5 -50.001s-5.83301 -33.667 -7.5 -45s-2.83398 -26.833 -3.50098 -46.5s-1 -30.167 -1 -31.5h3c12 24.667 32.667 44.5 62 59.5s58 22.5 86 22.5c60.667 0 107.167 -20.667 139.5 -62s48.5 -101 48.5 -179zM406.001 236.003
c0 44 -2.99805 77.834 -8.99805 101.501s-17 43.5 -33 59.5c-25.333 26.667 -58 40 -98 40c-38.667 0 -71.334 -13.333 -98.001 -40c-28 -28.667 -42 -81.667 -42 -159c0 -42.667 3.16699 -75.834 9.5 -99.501s17.166 -43.5 32.499 -59.5
c26.667 -26.667 59.334 -40 98.001 -40c40 0 72.667 13.333 98 40c15.333 15.333 26.166 34.833 32.499 58.5s9.5 56.5 9.5 98.5z" />
    <glyph glyph-name="afii10067" unicode="&#x432;" horiz-adv-x="535" 
d="M463 131c0 -40.667 -12.499 -72.666 -37.499 -95.999s-59.833 -35 -104.5 -35h-224v482h219c41.333 0 74.833 -11.333 100.5 -34s38.5 -52.667 38.5 -90c0 -54.667 -27.333 -90.667 -82 -108c27.333 -8.66699 49.166 -23.334 65.499 -44.001s24.5 -45.667 24.5 -75z
M404.001 355.001c0 26.667 -8.66797 47.332 -26.001 61.999s-41.666 22 -72.999 22h-157v-168h157c32 0 56.5 7.33301 73.5 22s25.5 35.334 25.5 62.001zM412 134.999c0 28 -9 50.5 -27 67.5s-43 25.5 -75 25.5h-162v-185h162c32 0 57 8.33301 75 25s27 39 27 67z" />
    <glyph glyph-name="afii10068" unicode="&#x433;" horiz-adv-x="411" 
d="M401 439h-249v-439h-51v482h300v-43z" />
    <glyph glyph-name="afii10069" unicode="&#x434;" horiz-adv-x="559" 
d="M523 -160h-50.999v160h-393v-160h-51v203h64c23.333 48 40.666 94.833 51.999 140.5s17 108.5 17 188.5v110h287v-439h75v-203zM397.001 43v396h-185v-100c0 -65.333 -5 -120 -15 -164s-25 -88 -45 -132h245z" />
    <glyph glyph-name="afii10070" unicode="&#x435;" horiz-adv-x="523" 
d="M455 230l-335 0.000976562c2 -45.333 7.66699 -79.333 17 -102c24 -58.667 71 -88 141 -88c25.333 0 48 4 68 12c17.333 7.33301 38.666 22.666 63.999 45.999l38 -30c-29.333 -28.667 -56.333 -48 -81 -58c-25.333 -10.667 -55.666 -16 -90.999 -16
c-138 0 -207 83.333 -207 250c0 76 17.167 135.667 51.5 179s81.5 65 141.5 65s107.167 -20.833 141.5 -62.5s51.5 -99.167 51.5 -172.5v-23zM404 271.001c-2 32.667 -5 55.666 -9 68.999c-9.33301 32.667 -25.833 58 -49.5 76s-51.5 27 -83.5 27
c-28 0 -53 -7.16699 -75 -21.5s-38.667 -34.166 -50 -59.499c-9.33301 -22 -15 -52.333 -17 -91h284z" />
    <glyph glyph-name="afii10072" unicode="&#x436;" horiz-adv-x="713" 
d="M689 0h-64l-150 244l-93 -116v-128h-51v128l-93 116l-150 -244h-64l181 284l-158 198h65l219 -282v282h51v-282l219 282h65l-158 -198z" />
    <glyph glyph-name="afii10073" unicode="&#x437;" horiz-adv-x="477" 
d="M405 133c0 -41.333 -17.6719 -74.665 -53.0049 -99.998s-78.333 -38 -129 -38c-39.333 0 -73.166 5.16699 -101.499 15.5s-56.5 28.166 -84.5 53.499l35 35c22.667 -22 44.834 -37.333 66.501 -46s48.834 -13 81.501 -13c34.667 0 66 8.66699 94 26s42 40 42 68
c0 29.333 -10.167 52 -30.5 68s-47.166 24 -80.499 24h-69v43h71c30 0 54.167 7.66699 72.5 23s27.5 37 27.5 65c0 27.333 -10.667 48.666 -32 63.999s-50.333 23 -87 23c-51.333 0 -97.666 -14.333 -138.999 -43l-30 36c48.667 34 105 51 169 51
c49.333 0 89.833 -11.5 121.5 -34.5s47.5 -54.833 47.5 -95.5c0 -25.333 -7 -47.833 -21 -67.5s-34 -33.5 -60 -41.5c27.333 -7.33301 49 -21.5 65 -42.5s24 -45.5 24 -73.5z" />
    <glyph glyph-name="afii10074" unicode="&#x438;" horiz-adv-x="573" 
d="M476 0h-51v404l-277 -404h-51v482h51v-404l277 404h51v-482z" />
    <glyph glyph-name="afii10075" unicode="&#x439;" horiz-adv-x="573" 
d="M445 702c-18.667 -83.333 -71.667 -125 -159 -125s-140.333 41.667 -159 125h47c14 -53.333 51.667 -80 113 -80c60 0 97 26.667 111 80h47zM476 0h-51v404l-277 -404h-51v482h51v-404l277 404h51v-482z" />
    <glyph glyph-name="afii10076" unicode="&#x43a;" horiz-adv-x="524" 
d="M492 0h-64l-172 248l-106 -120v-128h-51v482h51v-282l249 282h65l-174 -196z" />
    <glyph glyph-name="afii10077" unicode="&#x43b;" horiz-adv-x="559" 
d="M462 0l-51 0.000976562v439h-195l-7 -237c-3.33301 -134.667 -53.666 -202 -150.999 -202h-32v43h25c13.333 0 25.166 1.83301 35.499 5.5s21.333 11.167 33 22.5s21 29.666 28 54.999s10.833 57 11.5 95l7 261h296v-482z" />
    <glyph glyph-name="afii10078" unicode="&#x43c;" horiz-adv-x="648" 
d="M551 0h-51v378l-151 -310h-48l-153 310v-378h-51v482h51l178 -363l174 363h51v-482z" />
    <glyph glyph-name="afii10079" unicode="&#x43d;" horiz-adv-x="559" 
d="M462 0h-51v228h-263v-228h-51v482h51v-211h263v211h51v-482z" />
    <glyph glyph-name="afii10080" unicode="&#x43e;" horiz-adv-x="526" 
d="M457 244c0 -90.667 -20 -156.333 -60 -197c-35.333 -35.333 -80 -53 -134 -53s-98.667 17.667 -134 53c-40 40 -60 104.667 -60 194s20 154 60 194c35.333 35.333 80 53 134 53c62 0 109.833 -21.167 143.5 -63.5s50.5 -102.5 50.5 -180.5zM406 239.001
c0 44 -3.16699 78 -9.5 102s-17.5 44.333 -33.5 61c-26 27.333 -59.333 41 -100 41s-74 -13.667 -100 -41c-28.667 -29.333 -43 -83 -43 -161c0 -42.667 3.16699 -76 9.5 -100s17.5 -44.333 33.5 -61c26 -27.333 59.333 -41 100 -41s74 13.667 100 41
c28.667 29.333 43 82.333 43 159z" />
    <glyph glyph-name="afii10081" unicode="&#x43f;" horiz-adv-x="559" 
d="M462 0h-51v439h-263v-439h-51v482h365v-482z" />
    <glyph glyph-name="afii10082" unicode="&#x440;" horiz-adv-x="540" 
d="M471 240c0 -164 -61 -246 -183 -246c-34.667 0 -62 5.16699 -82 15.5s-39.333 27.833 -58 52.5v-292h-51v712h51v-62c20 25.333 39.667 43 59 53s46 15 80 15c122.667 0 184 -82.667 184 -248zM420 240c0 70.667 -10.833 122.168 -32.5 154.501s-56.167 48.5 -103.5 48.5
s-81.833 -16.167 -103.5 -48.5s-32.5 -83.5 -32.5 -153.5s10.833 -121.167 32.5 -153.5s56.167 -48.5 103.5 -48.5s81.833 16.167 103.5 48.5s32.5 83.166 32.5 152.499z" />
    <glyph glyph-name="afii10083" unicode="&#x441;" horiz-adv-x="493" 
d="M440 68c-25.333 -27.333 -49.002 -46.501 -71.002 -57.501s-50.333 -16.5 -85 -16.5c-67.333 0 -120 22 -158 66s-57 104.333 -57 181s19 137 57 181s90.667 66 158 66c34 0 62 -5.5 84 -16.5s46 -30.167 72 -57.5l-35 -32c-19.333 21.333 -38 36.833 -56 46.5
s-40 14.5 -66 14.5c-57.333 0 -100.666 -21.333 -129.999 -64c-22 -31.333 -33 -77.666 -33 -138.999s11 -107 33 -137c30 -42.667 73 -64 129 -64c26.667 0 48.834 4.83301 66.501 14.5s36.5 25.167 56.5 46.5z" />
    <glyph glyph-name="afii10084" unicode="&#x442;" horiz-adv-x="409" 
d="M399 439h-164v-439h-51v439h-174v43h389v-43z" />
    <glyph glyph-name="afii10085" unicode="&#x443;" horiz-adv-x="430" 
d="M416 482l-224 -613c-9.33301 -25.333 -20.333 -44 -33 -56c-22.667 -20.667 -53 -31 -91 -31h-24v45h19c25.333 0 44 4.5 56 13.5s22.667 26.5 32 52.5l39 107l-176 482h56l145 -422l145 422h56z" />
    <glyph glyph-name="afii10086" unicode="&#x444;" horiz-adv-x="667" 
d="M607 241c0 -78 -22.167 -138.667 -66.5 -182s-104.833 -65 -181.5 -65v-224h-51v224c-76.667 0 -137.167 21.667 -181.5 65s-66.5 104 -66.5 182s21.667 138.667 65 182s104.333 65 183 65v224h51v-224c78.667 0 139.667 -21.667 183 -65s65 -104 65 -182zM556 240
c0 60.667 -15.5 109.668 -46.5 147.001s-81.167 56 -150.5 56v-404c65.333 0 114.5 18.167 147.5 54.5s49.5 85.166 49.5 146.499zM308 39.001v403.999c-69.333 0 -119.5 -18.667 -150.5 -56s-46.5 -86.333 -46.5 -147c0 -61.333 16.5 -110.166 49.5 -146.499
s82.167 -54.5 147.5 -54.5z" />
    <glyph glyph-name="afii10087" unicode="&#x445;" horiz-adv-x="460" 
d="M420 0h-62l-127 203l-129 -203h-62l163 246l-156 236h62l122 -194l120 194h62l-156 -236z" />
    <glyph glyph-name="afii10088" unicode="&#x446;" horiz-adv-x="573" 
d="M537 -160h-51v160h-389v482h51v-439h263v439h51v-439h75v-203z" />
    <glyph glyph-name="afii10089" unicode="&#x447;" horiz-adv-x="530" 
d="M433 0h-51.001v224c-37.333 -37.333 -82.333 -56 -135 -56c-52 0 -93 14.667 -123 44s-45 71.333 -45 126v144h51v-135c0 -89.333 41.333 -134 124 -134c68.667 0 111.334 29 128.001 87v182h51v-482z" />
    <glyph glyph-name="afii10090" unicode="&#x448;" horiz-adv-x="793" 
d="M696 0h-599v482h51v-439h223v439h51v-439h223v439h51v-482z" />
    <glyph glyph-name="afii10091" unicode="&#x449;" horiz-adv-x="807" 
d="M771 -160h-51v160h-623v482h51v-439h223v439h51v-439h223v439h51v-439h75v-203z" />
    <glyph glyph-name="afii10092" unicode="&#x44a;" horiz-adv-x="583" 
d="M543 142c0 -42.667 -13.5 -77 -40.5 -103s-63.167 -39 -108.5 -39h-212v439h-172v43h223v-198h161c45.333 0 81.5 -13 108.5 -39s40.5 -60.333 40.5 -103zM492 142c0 32 -9.16699 56.5 -27.5 73.5s-44.5 25.5 -78.5 25.5h-153v-198h153c34.667 0 61 8.5 79 25.5
s27 41.5 27 73.5z" />
    <glyph glyph-name="afii10093" unicode="&#x44b;" horiz-adv-x="702" 
d="M592 0h-51v482h51v-482zM458 142c0 -42.667 -13.5 -77 -40.5 -103s-63.167 -39 -108.5 -39h-212v482h51v-198h161c45.333 0 81.5 -13 108.5 -39s40.5 -60.333 40.5 -103zM407 142c0 32 -9.16699 56.5 -27.5 73.5s-44.5 25.5 -78.5 25.5h-153v-198h153
c34.667 0 61 8.5 79 25.5s27 41.5 27 73.5z" />
    <glyph glyph-name="afii10094" unicode="&#x44c;" horiz-adv-x="498" 
d="M458 142c0 -42.667 -13.5 -77 -40.5 -103s-63.167 -39 -108.5 -39h-212v482h51v-198h161c45.333 0 81.5 -13 108.5 -39s40.5 -60.333 40.5 -103zM407 142c0 32 -9.16699 56.5 -27.5 73.5s-44.5 25.5 -78.5 25.5h-153v-198h153c34.667 0 61 8.5 79 25.5s27 41.5 27 73.5z
" />
    <glyph glyph-name="afii10095" unicode="&#x44d;" horiz-adv-x="493" 
d="M424 241c0 -76.667 -19 -137 -57 -181s-90.667 -66 -158 -66c-34.667 0 -63 5.5 -85 16.5s-45.667 30.167 -71 57.5l35 32c20 -21.333 38.833 -36.833 56.5 -46.5s39.834 -14.5 66.501 -14.5c55.333 0 96.166 17.833 122.499 53.5s39.5 81.5 39.5 137.5h-229v41h228
c-2.66699 51.333 -17.667 92.833 -45 124.5s-66.333 47.5 -117 47.5c-26 0 -48 -4.83301 -66 -14.5s-36.667 -25.167 -56 -46.5l-35 32c26 27.333 50 46.5 72 57.5s50 16.5 84 16.5c67.333 0 120 -22 158 -66s57 -104.333 57 -181z" />
    <glyph glyph-name="afii10096" unicode="&#x44e;" horiz-adv-x="712" 
d="M643 244c0 -90.667 -20.001 -156.333 -60.001 -197c-35.333 -35.333 -80 -53 -134 -53s-98.667 17.667 -134 53c-38 38 -58 97.667 -60 179h-107v-226h-51v482h51v-213h108c2.66699 74 22.334 129.333 59.001 166c35.333 35.333 80 53 134 53
c62 0 109.833 -21.167 143.5 -63.5s50.5 -102.5 50.5 -180.5zM591.999 239.001c0 44 -3.16699 78 -9.5 102s-17.5 44.333 -33.5 61c-26 27.333 -59.333 41 -100 41s-74 -13.667 -100 -41c-28.667 -29.333 -43 -83 -43 -161c0 -42.667 3.16699 -76 9.5 -100
s17.5 -44.333 33.5 -61c26 -27.333 59.333 -41 100 -41s74 13.667 100 41c28.667 29.333 43 82.333 43 159z" />
    <glyph glyph-name="afii10097" unicode="&#x44f;" horiz-adv-x="519" 
d="M422 0h-51v196h-135l-114 -196h-62l120 198c-37.333 5.33301 -66.833 20.833 -88.5 46.5s-32.5 57.5 -32.5 95.5c0 42.667 13.5 77 40.5 103s63.167 39 108.5 39h214v-482zM371 239v200h-153c-34.667 0 -61.167 -8.66699 -79.5 -26s-27.5 -42 -27.5 -74
s9.16699 -56.667 27.5 -74s44.833 -26 79.5 -26h153z" />
    <glyph glyph-name="afii10071" unicode="&#x451;" horiz-adv-x="523" 
d="M405 639c0 -10.667 -3.66699 -19.834 -11 -27.501s-16 -11.5 -26 -11.5c-10.667 0 -19.667 3.66699 -27 11s-11 16 -11 26c0 10.667 3.66699 19.667 11 27s16 11 26 11s18.833 -3.66699 26.5 -11s11.5 -15.666 11.5 -24.999zM198 639
c0 -10.667 -3.66699 -19.834 -11 -27.501s-16 -11.5 -26 -11.5c-10.667 0 -19.667 3.66699 -27 11s-11 16 -11 26c0 10.667 3.66699 19.667 11 27s16 11 26 11s18.833 -3.66699 26.5 -11s11.5 -15.666 11.5 -24.999zM455 230l-335 0.000976562
c2 -45.333 7.66699 -79.333 17 -102c24 -58.667 71 -88 141 -88c25.333 0 48 4 68 12c17.333 7.33301 38.666 22.666 63.999 45.999l38 -30c-29.333 -28.667 -56.333 -48 -81 -58c-25.333 -10.667 -55.666 -16 -90.999 -16c-138 0 -207 83.333 -207 250
c0 76 17.167 135.667 51.5 179s81.5 65 141.5 65s107.167 -20.833 141.5 -62.5s51.5 -99.167 51.5 -172.5v-23zM404 271.001c-2 32.667 -5 55.666 -9 68.999c-9.33301 32.667 -25.833 58 -49.5 76s-51.5 27 -83.5 27c-28 0 -53 -7.16699 -75 -21.5
s-38.667 -34.166 -50 -59.499c-9.33301 -22 -15 -52.333 -17 -91h284z" />
    <glyph glyph-name="afii10099" unicode="&#x452;" horiz-adv-x="559" 
d="M468 -85c0 -42 -11.668 -76.668 -35.001 -104.001s-57 -41 -101 -41h-44v45h35c28.667 0 51.5 9.5 68.5 28.5s25.5 43.167 25.5 72.5v263c0 96 -42.667 144 -128 144c-43.333 0 -77.666 -12.667 -102.999 -38s-38 -60.666 -38 -105.999v-179h-51v444h-61v38h61v230h51
v-230h254v-38h-254v-139c40 42 89.333 63 148 63c54 0 96.167 -16 126.5 -48s45.5 -76 45.5 -132v-273z" />
    <glyph glyph-name="afii10100" unicode="&#x453;" horiz-adv-x="411" 
d="M337 737l-106 -147h-58l97 147h67zM401 439h-249v-439h-51v482h300v-43z" />
    <glyph glyph-name="afii10101" unicode="&#x454;" horiz-adv-x="493" 
d="M440 68c-25.333 -27.333 -49 -46.5 -71 -57.5s-50.333 -16.5 -85 -16.5c-67.333 0 -120 22 -158 66s-57 104.333 -57 181s19 137 57 181s90.667 66 158 66c34 0 62 -5.5 84 -16.5s46 -30.167 72 -57.5l-35 -32c-19.333 21.333 -38 36.833 -56 46.5s-40 14.5 -66 14.5
c-50.667 0 -89.667 -15.833 -117 -47.5s-42.333 -73.167 -45 -124.5h228v-41h-229c0 -56 13.167 -101.833 39.5 -137.5s67.166 -53.5 122.499 -53.5c26.667 0 48.834 4.83301 66.501 14.5s36.5 25.167 56.5 46.5z" />
    <glyph glyph-name="afii10102" unicode="&#x455;" horiz-adv-x="494" 
d="M438 139c0 -45.333 -17.502 -80.8311 -52.502 -106.498s-83.833 -38.5 -146.5 -38.5c-41.333 0 -79.333 6.66699 -114 20c-24 10 -49 26.333 -75 49l35 35c21.333 -19.333 41 -33 59 -41c29.333 -12 63 -18 101 -18c95.333 0 143 32.667 143 98
c0 49.333 -30.667 76.333 -92 81l-80 7c-96.667 8 -145 49.667 -145 125c0 42 15.667 75.5 47 100.5s73.333 37.5 126 37.5c34 0 67.667 -5.33301 101 -16c23.333 -8 46 -19.667 68 -35l-34 -34c-19.333 13.333 -38.333 23 -57 29c-25.333 8 -51.333 12 -78 12
c-39.333 0 -69.666 -8.16699 -90.999 -24.5s-32 -39.5 -32 -69.5c0 -24.667 7.83301 -43.5 23.5 -56.5s40.5 -20.833 74.5 -23.5l78 -7c48.667 -4.66699 84.334 -16.834 107.001 -36.501s34 -48.834 34 -87.501z" />
    <glyph glyph-name="afii10103" unicode="&#x456;" horiz-adv-x="245" 
d="M160 682c0 -10.667 -3.66699 -19.834 -11 -27.501s-16 -11.5 -26 -11.5c-10.667 0 -19.667 3.66699 -27 11s-11 16 -11 26c0 10.667 3.66699 19.667 11 27s16 11 26 11s18.833 -3.66699 26.5 -11s11.5 -15.666 11.5 -24.999zM148 0h-51v482h51v-482z" />
    <glyph glyph-name="afii10104" unicode="&#x457;" horiz-adv-x="245" 
d="M264 639c0 -10.667 -3.66699 -19.834 -11 -27.501s-16 -11.5 -26 -11.5c-10.667 0 -19.667 3.66699 -27 11s-11 16 -11 26c0 10.667 3.66699 19.667 11 27s16 11 26 11s18.833 -3.66699 26.5 -11s11.5 -15.666 11.5 -24.999zM57 639
c0 -10.667 -3.66699 -19.834 -11 -27.501s-16 -11.5 -26 -11.5c-10.667 0 -19.667 3.66699 -27 11s-11 16 -11 26c0 10.667 3.66699 19.667 11 27s16 11 26 11s18.833 -3.66699 26.5 -11s11.5 -15.666 11.5 -24.999zM148 0h-51v482h51v-482z" />
    <glyph glyph-name="afii10105" unicode="&#x458;" horiz-adv-x="245" 
d="M160 682c0 -10.667 -3.66699 -19.834 -11 -27.501s-16 -11.5 -26 -11.5c-10.667 0 -19.667 3.66699 -27 11s-11 16 -11 26c0 10.667 3.66699 19.667 11 27s16 11 26 11s18.833 -3.66699 26.5 -11s11.5 -15.666 11.5 -24.999zM148 -105
c0 -39.333 -10.167 -69.999 -30.5 -91.999s-48.833 -33 -85.5 -33h-44v45h35c26.667 0 45.667 6.16699 57 18.5s17 33.166 17 62.499v586h51v-587z" />
    <glyph glyph-name="afii10106" unicode="&#x459;" horiz-adv-x="812" 
d="M772 142c0 -42.667 -13.5 -76.999 -40.5 -102.999s-63.167 -39 -108.5 -39h-212v439h-195l-7 -237c-3.33301 -134.667 -53.666 -202 -150.999 -202h-32v43h25c13.333 0 25.166 1.83301 35.499 5.5s21.333 11.167 33 22.5s21 29.666 28 54.999s10.833 57 11.5 95l7 261
h296v-198h161c45.333 0 81.5 -13 108.5 -39s40.5 -60.333 40.5 -103zM721 142.001c0 32 -9.16699 56.5 -27.5 73.5s-44.5 25.5 -78.5 25.5h-153v-198h153c34.667 0 61 8.5 79 25.5s27 41.5 27 73.5z" />
    <glyph glyph-name="afii10107" unicode="&#x45a;" horiz-adv-x="812" 
d="M772 142c0 -42.667 -13.5 -77 -40.5 -103s-63.167 -39 -108.5 -39h-212v241h-263v-241h-51v482h51v-198h263v198h51v-198h161c45.333 0 81.5 -13 108.5 -39s40.5 -60.333 40.5 -103zM721 142c0 32 -9.16699 56.5 -27.5 73.5s-44.5 25.5 -78.5 25.5h-153v-198h153
c34.667 0 61 8.5 79 25.5s27 41.5 27 73.5z" />
    <glyph glyph-name="afii10108" unicode="&#x45b;" horiz-adv-x="559" 
d="M468 0l-51.002 -0.00390625v179c0 46.667 -11.5 82.334 -34.5 107.001s-55.833 37 -98.5 37s-76 -12.667 -100 -38s-36 -60.666 -36 -105.999v-179h-51v444h-61v38h61v230h51v-230h254v-38h-254v-139c21.333 22.667 42.833 38.834 64.5 48.501s47.834 14.5 78.501 14.5
c54.667 0 97.834 -16.167 129.501 -48.5s47.5 -76.166 47.5 -131.499v-188z" />
    <glyph glyph-name="afii10109" unicode="&#x45c;" horiz-adv-x="524" 
d="M357 737l-106 -147h-58l97 147h67zM492 0h-64l-172 248l-106 -120v-128h-51v482h51v-282l249 282h65l-174 -196z" />
    <glyph glyph-name="afii10110" unicode="&#x45e;" horiz-adv-x="430" 
d="M374 702c-18.667 -83.333 -71.667 -125 -159 -125s-140.333 41.667 -159 125h47c14 -53.333 51.667 -80 113 -80c60 0 97 26.667 111 80h47zM416 482l-224 -613c-9.33301 -25.333 -20.333 -44 -33 -56c-22.667 -20.667 -53 -31 -91 -31h-24v45h19
c25.333 0 44 4.5 56 13.5s22.667 26.5 32 52.5l39 107l-176 482h56l145 -422l145 422h56z" />
    <glyph glyph-name="afii10193" unicode="&#x45f;" horiz-adv-x="559" 
d="M462 0h-157v-160h-51v160h-157v482h51v-439h263v439h51v-482z" />
    <glyph glyph-name="afii10050" unicode="&#x490;" horiz-adv-x="564" 
d="M540 664h-368v-664h-54v712h368v190h54v-238z" />
    <glyph glyph-name="afii10098" unicode="&#x491;" horiz-adv-x="411" 
d="M401 439h-249v-439h-51v482h249v160h51v-203z" />
    <glyph glyph-name="endash" unicode="&#x2013;" horiz-adv-x="500" 
d="M500 240h-500v47h500v-47z" />
    <glyph glyph-name="emdash" unicode="&#x2014;" horiz-adv-x="1000" 
d="M1000 240h-1000v47h1000v-47z" />
    <glyph glyph-name="quoteleft" unicode="&#x2018;" horiz-adv-x="260" 
d="M181 762l-37 -173h-66l54 173h49z" />
    <glyph glyph-name="quoteright" unicode="&#x2019;" horiz-adv-x="260" 
d="M181 762l-54 -173h-49l37 173h66z" />
    <glyph glyph-name="quotesinglbase" unicode="&#x201a;" horiz-adv-x="260" 
d="M181 76l-54 -173h-49l37 173h66z" />
    <glyph glyph-name="quotedblleft" unicode="&#x201c;" horiz-adv-x="416" 
d="M337 762l-37 -173h-66l54 173h49zM181 762l-37 -173h-66l54 173h49z" />
    <glyph glyph-name="quotedblright" unicode="&#x201d;" horiz-adv-x="416" 
d="M337 762l-54 -173h-49l37 173h66zM181 762l-54 -173h-49l37 173h66z" />
    <glyph glyph-name="quotedblbase" unicode="&#x201e;" horiz-adv-x="416" 
d="M337 76l-54 -173h-49l37 173h66zM181 76l-54 -173h-49l37 173h66z" />
    <glyph glyph-name="dagger" unicode="&#x2020;" horiz-adv-x="614" 
d="M534 457h-203v-457h-51v457h-200v45h200v210h51v-210h203v-45z" />
    <glyph glyph-name="daggerdbl" unicode="&#x2021;" horiz-adv-x="614" 
d="M534 -20h-203v-210h-51v210h-200v45h200v432h-200v45h200v210h51v-210h203v-45h-203v-432h203v-45z" />
    <glyph glyph-name="bullet" unicode="&#x2022;" horiz-adv-x="546" 
d="M436 337c0 -46.667 -15.833 -86 -47.5 -118s-70.167 -48 -115.5 -48c-44.667 0 -83 15.833 -115 47.5s-48 70.167 -48 115.5s16 83.833 48 115.5s70.333 47.5 115 47.5c44 0 82.167 -15.833 114.5 -47.5s48.5 -69.167 48.5 -112.5z" />
    <glyph glyph-name="ellipsis" unicode="&#x2026;" horiz-adv-x="724" 
d="M638 44c0 -12.667 -4.5 -23.667 -13.5 -33s-19.833 -14 -32.5 -14s-23.5 4.5 -32.5 13.5s-13.5 19.833 -13.5 32.5s4.5 23.5 13.5 32.5s19.833 13.5 32.5 13.5s23.5 -4.5 32.5 -13.5s13.5 -19.5 13.5 -31.5zM408 44c0 -12.667 -4.5 -23.667 -13.5 -33
s-19.833 -14 -32.5 -14s-23.5 4.5 -32.5 13.5s-13.5 19.833 -13.5 32.5s4.5 23.5 13.5 32.5s19.833 13.5 32.5 13.5s23.5 -4.5 32.5 -13.5s13.5 -19.5 13.5 -31.5zM178 44c0 -12.667 -4.5 -23.667 -13.5 -33s-19.833 -14 -32.5 -14s-23.5 4.5 -32.5 13.5
s-13.5 19.833 -13.5 32.5s4.5 23.5 13.5 32.5s19.833 13.5 32.5 13.5s23.5 -4.5 32.5 -13.5s13.5 -19.5 13.5 -31.5z" />
    <glyph glyph-name="perthousand" unicode="&#x2030;" horiz-adv-x="1168" 
d="M1099 127c0 -39.333 -12.167 -71.5 -36.5 -96.5s-55.833 -37.5 -94.5 -37.5s-70.334 12.5 -95.001 37.5s-37 57.167 -37 96.5v107c0 39.333 12.333 71.5 37 96.5s56.334 37.5 95.001 37.5s70.167 -12.5 94.5 -37.5s36.5 -57.167 36.5 -96.5v-107zM759 127
c0 -39.333 -12.167 -71.5 -36.5 -96.5s-55.833 -37.5 -94.5 -37.5s-70.334 12.5 -95.001 37.5s-37 57.167 -37 96.5v107c0 39.333 12.333 71.5 37 96.5s56.334 37.5 95.001 37.5s70.167 -12.5 94.5 -37.5s36.5 -57.167 36.5 -96.5v-107zM603 712l-332 -712h-45l332 712h45z
M332 478c0 -39.333 -12.167 -71.333 -36.5 -96s-55.833 -37 -94.5 -37s-70.334 12.333 -95.001 37s-37 56.667 -37 96v107c0 39.333 12.333 71.5 37 96.5s56.334 37.5 95.001 37.5s70.167 -12.5 94.5 -37.5s36.5 -57.167 36.5 -96.5v-107zM1055 128v104
c0 65.333 -29 98 -87 98c-58.667 0 -88 -32.667 -88 -98v-103c0 -65.333 29.667 -98 89 -98c57.333 0 86 32.333 86 97zM715 129v103c0 65.333 -29.333 98 -88 98c-58 0 -87 -32.667 -87 -98v-103c0 -65.333 29.333 -98 88 -98c58 0 87 32.667 87 98zM288 480v103
c0 65.333 -29.333 98 -88 98c-58 0 -87 -32.667 -87 -98v-103c0 -64.667 29.333 -97 88 -97c58 0 87 32.333 87 97z" />
    <glyph glyph-name="guilsinglleft" unicode="&#x2039;" horiz-adv-x="320" 
d="M238 69l-196 196l196 196v-66l-130 -130l130 -130v-66z" />
    <glyph glyph-name="guilsinglright" unicode="&#x203a;" horiz-adv-x="320" 
d="M278 265l-196 -196v66l130 130l-130 130v66z" />
    <glyph glyph-name="afii61352" unicode="&#x2116;" horiz-adv-x="954" 
d="M880 246c0 -39.333 -12.167 -71.5 -36.5 -96.5s-55.833 -37.5 -94.5 -37.5s-70.334 12.5 -95.001 37.5s-37 57.167 -37 96.5v107c0 39.333 12.333 71.5 37 96.5s56.334 37.5 95.001 37.5s70.167 -12.5 94.5 -37.5s36.5 -57.167 36.5 -96.5v-107zM886 0h-262v43h262v-43z
M548 0h-51l-361 616v-616h-51v712h51l361 -614v614h51v-712zM832 248v103c0 62.667 -28 94 -84 94c-55.333 0 -83 -31.333 -83 -94v-103c0 -62.667 28 -94 84 -94c55.333 0 83 31.333 83 94z" />
    <glyph glyph-name="trademark" unicode="&#x2122;" horiz-adv-x="809" 
d="M753 285h-44v328l-110 -218h-46l-110 218v-328h-44v427h44l133 -270l133 270h44v-427zM320 671h-122v-386h-44v386h-122v41h288v-41z" />
    <glyph glyph-name="radical" unicode="&#x221a;" horiz-adv-x="550" 
d="M520 664h-88l-217 -664h-46l-159 482h56l126 -387l199 617h129v-48z" />
    <glyph glyph-name="infinity" unicode="&#x221e;" horiz-adv-x="792" 
d="M720 260c0 -42.667 -14 -78 -42 -106s-63.333 -42 -106 -42c-36.667 0 -67.667 9 -93 27s-53 45 -83 81c-30 -36 -57.667 -63.167 -83 -81.5s-56.333 -27.5 -93 -27.5c-42.667 0 -78 14.167 -106 42.5s-42 63.833 -42 106.5c0 43.333 14 79.166 42 107.499
s63.333 42.5 106 42.5c36 0 67 -9.33301 93 -28s53.667 -46 83 -82c20 24 36.5 42.5 49.5 55.5s30.833 25.333 53.5 37s47 17.5 73 17.5c42.667 0 78 -14.167 106 -42.5s42 -64.166 42 -107.499zM672 260c0 30 -9.49805 54.833 -28.498 74.5s-43.167 29.5 -72.5 29.5
c-6.66699 0 -13.334 -0.666992 -20.001 -2s-13.334 -3.5 -20.001 -6.5s-12.5 -5.83301 -17.5 -8.5s-10.833 -6.83398 -17.5 -12.501l-15 -13c-3.33301 -3 -8.33301 -8.16699 -15 -15.5l-13.5 -15l-14 -16.5c-7 -8.33301 -11.167 -13.166 -12.5 -14.499
c0.666992 -0.666992 4.83398 -5.5 12.501 -14.5l14 -16.5l13 -15c7 -8 12.167 -13.167 15.5 -15.5s8.33301 -6.5 15 -12.5s12.5 -10 17.5 -12s10.833 -4.66699 17.5 -8s13.167 -5.5 19.5 -6.5s13.166 -1.5 20.499 -1.5c29.333 0 53.5 9.5 72.5 28.5s28.5 43.5 28.5 73.5z
M366.002 260c-1.33301 1.33301 -5.99805 6.83301 -13.998 16.5l-15.5 19c-2.33301 3 -7.5 8.66699 -15.5 17s-14 14 -18 17l-17.5 13.5c-7.66699 6 -14.5 10.167 -20.5 12.5s-12.833 4.5 -20.5 6.5s-15.5 3 -23.5 3c-29.333 0 -53.5 -9.83301 -72.5 -29.5
s-28.5 -44.834 -28.5 -75.501c0 -30 9.5 -54.5 28.5 -73.5s43.167 -28.5 72.5 -28.5c15.333 0 29.666 2.5 42.999 7.5s27.166 14.333 41.499 28s24 23.334 29 29.001z" />
    <glyph glyph-name="approxequal" unicode="&#x2248;" 
d="M461 357c-29.333 -28.667 -52.666 -46.667 -69.999 -54c-12 -5.33301 -26.333 -8 -43 -8c-27.333 0 -58 8.33301 -92 25c-38.667 19.333 -69 29 -91 29c-14.667 0 -27 -2.83301 -37 -8.5s-24.667 -17.834 -44 -36.501l-31 31c29.333 28.667 52.666 46.667 69.999 54
c12 5.33301 26.333 8 43 8c17.333 0 54 -11 110 -33c34.667 -14 59 -21 73 -21c14.667 0 27 2.83301 37 8.5s24.667 17.834 44 36.501zM461 197c-29.333 -28.667 -52.666 -46.667 -69.999 -54c-12 -5.33301 -26.333 -8 -43 -8c-27.333 0 -58 8.33301 -92 25
c-38.667 19.333 -69 29 -91 29c-14.667 0 -27 -2.83301 -37 -8.5s-24.667 -17.834 -44 -36.501l-31 31c29.333 28.667 52.666 46.667 69.999 54c12 5.33301 26.333 8 43 8c17.333 0 54 -11 110 -33c34.667 -14 59 -21 73 -21c14.667 0 27 2.83301 37 8.5
s24.667 17.834 44 36.501z" />
    <glyph glyph-name="notequal" unicode="&#x2260;" 
d="M461 163h-224l-89 -163l-42 22l78 141h-131v47h156l57 106h-213v47h238l74 138l42 -22l-62 -116h116v-47h-142l-56 -106h198v-47z" />
    <glyph glyph-name="lessequal" unicode="&#x2264;" 
d="M473 118l-432 167v54l432 168v-54l-366 -141l366 -140v-54zM473 0h-432v48h432v-48z" />
    <glyph glyph-name="greaterequal" unicode="&#x2265;" 
d="M473 285l-432 -167v54l366 140l-366 141v54l432 -168v-54zM473 0h-432v48h432v-48z" />
    <glyph glyph-name=".null" horiz-adv-x="0" 
 />
    <glyph glyph-name="nonmarkingreturn" horiz-adv-x="333" 
 />
    <glyph glyph-name="hyphenminus" horiz-adv-x="426" 
d="M344 240h-262v47h262v-47z" />
    <glyph glyph-name="periodcentered" horiz-adv-x="264" 
d="M178 261c0 -12.667 -4.5 -23.667 -13.5 -33s-19.833 -14 -32.5 -14s-23.5 4.5 -32.5 13.5s-13.5 19.833 -13.5 32.5s4.5 23.5 13.5 32.5s19.833 13.5 32.5 13.5s23.5 -4.5 32.5 -13.5s13.5 -19.5 13.5 -31.5z" />
    </font>
</defs>
</svg>
